<svg width="19" height="18" viewBox="0 0 19 18" fill="none" xmlns="http://www.w3.org/2000/svg">
<path d="M5.83225 4.01245C6.3115 4.01245 6.75475 4.04995 7.15975 4.16095C7.52726 4.22848 7.87806 4.36707 8.1925 4.56895C8.488 4.7542 8.70925 5.01445 8.85625 5.3482C9.004 5.68195 9.0775 6.0907 9.0775 6.53545C9.0775 7.0552 8.96725 7.49995 8.70925 7.8337C8.488 8.1682 8.119 8.46445 7.6765 8.6872C8.3035 8.8732 8.78275 9.20695 9.0775 9.6517C9.373 10.0972 9.5575 10.6537 9.5575 11.2845C9.5575 11.8042 9.4465 12.249 9.262 12.6202C9.0775 12.9915 8.78275 13.3252 8.4505 13.5479C8.08959 13.7867 7.69063 13.9622 7.27075 14.067C6.82825 14.1787 6.38575 14.2529 5.94325 14.2529H1V4.01245H5.83225ZM5.53675 8.16745C5.9425 8.16745 6.27475 8.05645 6.53275 7.8712C6.79075 7.68595 6.90175 7.35145 6.90175 6.94345C6.90175 6.7207 6.86425 6.49795 6.79075 6.3502C6.71725 6.2017 6.60625 6.08995 6.45925 5.97895C6.3115 5.9047 6.16375 5.83045 5.97925 5.7937C5.79475 5.7562 5.611 5.7562 5.389 5.7562H3.25V8.1682H5.5375L5.53675 8.16745ZM5.64775 12.546C5.869 12.546 6.09025 12.5084 6.27475 12.4717C6.46103 12.4363 6.63721 12.3602 6.79075 12.249C6.94104 12.1404 7.06677 12.0014 7.15975 11.841C7.23325 11.6557 7.3075 11.433 7.3075 11.1735C7.3075 10.6537 7.15975 10.2825 6.865 10.023C6.5695 9.8002 6.16375 9.6892 5.6845 9.6892H3.25V12.5467L5.64775 12.546ZM12.7667 12.5084C13.0615 12.8054 13.504 12.9539 14.0942 12.9539C14.5 12.9539 14.869 12.843 15.1637 12.6577C15.4593 12.435 15.6437 12.2122 15.7172 11.9895H17.5247C17.2292 12.8797 16.7868 13.5105 16.1973 13.9185C15.6063 14.2897 14.9058 14.5125 14.0575 14.5125C13.5148 14.5141 12.9766 14.4133 12.4713 14.2155C12.0165 14.0449 11.611 13.7646 11.2907 13.3994C10.9482 13.0579 10.695 12.6373 10.5535 12.1747C10.369 11.6925 10.2948 11.1735 10.2948 10.5795C10.2948 10.023 10.369 9.50395 10.5535 9.02095C10.7309 8.55602 10.9934 8.12821 11.3275 7.75945C11.6597 7.4257 12.0655 7.12945 12.508 6.94345C13.0005 6.7455 13.5267 6.64465 14.0575 6.64645C14.6845 6.64645 15.238 6.7582 15.7172 7.0177C16.1972 7.2772 16.5655 7.5742 16.861 8.0197C17.1624 8.4476 17.387 8.92473 17.5247 9.4297C17.5983 9.9487 17.635 10.4685 17.5983 11.0617H12.25C12.25 11.6557 12.4712 12.2122 12.7667 12.5092V12.5084ZM15.0903 8.61295C14.8323 8.35345 14.4265 8.20495 13.9465 8.20495C13.6651 8.20073 13.3867 8.26427 13.135 8.3902C12.9138 8.50195 12.7668 8.65045 12.619 8.79895C12.4832 8.94239 12.3934 9.12312 12.361 9.31795C12.3235 9.50395 12.2867 9.6517 12.2867 9.8002H15.6063C15.5328 9.2437 15.3483 8.8732 15.0903 8.61295ZM11.8442 4.71745H15.9752V5.71945H11.845V4.71745H11.8442Z" fill="#101010"/>
</svg>
