<svg width="18" height="18" viewBox="0 0 18 18" fill="none" xmlns="http://www.w3.org/2000/svg">
<path d="M5.58225 4.01245C6.0615 4.01245 6.50475 4.04995 6.90975 4.16095C7.27726 4.22848 7.62806 4.36707 7.9425 4.56895C8.238 4.7542 8.45925 5.01445 8.60625 5.3482C8.754 5.68195 8.8275 6.0907 8.8275 6.53545C8.8275 7.0552 8.71725 7.49995 8.45925 7.8337C8.238 8.1682 7.869 8.46445 7.4265 8.6872C8.0535 8.8732 8.53275 9.20695 8.8275 9.6517C9.123 10.0972 9.3075 10.6537 9.3075 11.2845C9.3075 11.8042 9.1965 12.249 9.012 12.6202C8.8275 12.9915 8.53275 13.3252 8.2005 13.5479C7.83959 13.7867 7.44063 13.9622 7.02075 14.067C6.57825 14.1787 6.13575 14.2529 5.69325 14.2529H0.75V4.01245H5.58225ZM5.28675 8.16745C5.6925 8.16745 6.02475 8.05645 6.28275 7.8712C6.54075 7.68595 6.65175 7.35145 6.65175 6.94345C6.65175 6.7207 6.61425 6.49795 6.54075 6.3502C6.46725 6.2017 6.35625 6.08995 6.20925 5.97895C6.0615 5.9047 5.91375 5.83045 5.72925 5.7937C5.54475 5.7562 5.361 5.7562 5.139 5.7562H3V8.1682H5.2875L5.28675 8.16745ZM5.39775 12.546C5.619 12.546 5.84025 12.5084 6.02475 12.4717C6.21103 12.4363 6.38721 12.3602 6.54075 12.249C6.69104 12.1404 6.81677 12.0014 6.90975 11.841C6.98325 11.6557 7.0575 11.433 7.0575 11.1735C7.0575 10.6537 6.90975 10.2825 6.615 10.023C6.3195 9.8002 5.91375 9.6892 5.4345 9.6892H3V12.5467L5.39775 12.546ZM12.5167 12.5084C12.8115 12.8054 13.254 12.9539 13.8442 12.9539C14.25 12.9539 14.619 12.843 14.9137 12.6577C15.2093 12.435 15.3937 12.2122 15.4672 11.9895H17.2747C16.9792 12.8797 16.5368 13.5105 15.9473 13.9185C15.3563 14.2897 14.6558 14.5125 13.8075 14.5125C13.2648 14.5141 12.7266 14.4133 12.2213 14.2155C11.7665 14.0449 11.361 13.7646 11.0407 13.3994C10.6982 13.0579 10.445 12.6373 10.3035 12.1747C10.119 11.6925 10.0448 11.1735 10.0448 10.5795C10.0448 10.023 10.119 9.50395 10.3035 9.02095C10.4809 8.55602 10.7434 8.12821 11.0775 7.75945C11.4097 7.4257 11.8155 7.12945 12.258 6.94345C12.7505 6.7455 13.2767 6.64465 13.8075 6.64645C14.4345 6.64645 14.988 6.7582 15.4672 7.0177C15.9472 7.2772 16.3155 7.5742 16.611 8.0197C16.9124 8.4476 17.137 8.92473 17.2747 9.4297C17.3483 9.9487 17.385 10.4685 17.3483 11.0617H12C12 11.6557 12.2212 12.2122 12.5167 12.5092V12.5084ZM14.8403 8.61295C14.5823 8.35345 14.1765 8.20495 13.6965 8.20495C13.4151 8.20073 13.1367 8.26427 12.885 8.3902C12.6638 8.50195 12.5168 8.65045 12.369 8.79895C12.2332 8.94239 12.1434 9.12312 12.111 9.31795C12.0735 9.50395 12.0367 9.6517 12.0367 9.8002H15.3563C15.2828 9.2437 15.0983 8.8732 14.8403 8.61295ZM11.5942 4.71745H15.7252V5.71945H11.595V4.71745H11.5942Z" fill="#86848C"/>
</svg>
