<svg width="19" height="18" viewBox="0 0 19 18" fill="none" xmlns="http://www.w3.org/2000/svg">
<path d="M7.53 16.155C8.25 16.3725 8.9775 16.5 9.75 16.5C11.7391 16.5 13.6468 15.7098 15.0533 14.3033C16.4598 12.8968 17.25 10.9891 17.25 9C17.25 8.01509 17.056 7.03982 16.6791 6.12987C16.3022 5.21993 15.7497 4.39314 15.0533 3.6967C14.3569 3.00026 13.5301 2.44781 12.6201 2.0709C11.7102 1.69399 10.7349 1.5 9.75 1.5C8.76509 1.5 7.78982 1.69399 6.87987 2.0709C5.96993 2.44781 5.14314 3.00026 4.4467 3.6967C3.04018 5.10322 2.25 7.01088 2.25 9C2.25 12.1875 4.2525 14.925 7.08 16.005C7.0125 15.42 6.945 14.4525 7.08 13.785L7.9425 10.08C7.9425 10.08 7.725 9.645 7.725 8.955C7.725 7.92 8.37 7.1475 9.105 7.1475C9.75 7.1475 10.05 7.62 10.05 8.2275C10.05 8.8725 9.6225 9.795 9.405 10.68C9.2775 11.415 9.795 12.06 10.545 12.06C11.88 12.06 12.915 10.635 12.915 8.625C12.915 6.825 11.625 5.595 9.7725 5.595C7.6575 5.595 6.4125 7.17 6.4125 8.8275C6.4125 9.4725 6.6225 10.125 6.9675 10.5525C7.035 10.5975 7.035 10.6575 7.0125 10.77L6.795 11.5875C6.795 11.715 6.7125 11.76 6.585 11.67C5.625 11.25 5.07 9.885 5.07 8.7825C5.07 6.4125 6.75 4.26 9.99 4.26C12.57 4.26 14.58 6.1125 14.58 8.5725C14.58 11.1525 12.9825 13.2225 10.695 13.2225C9.9675 13.2225 9.255 12.8325 9 12.375L8.4975 14.1525C8.325 14.7975 7.8525 15.66 7.53 16.1775V16.155Z" fill="#101010"/>
</svg>
