<svg width="16" height="19" viewBox="0 0 16 19" fill="none" xmlns="http://www.w3.org/2000/svg">
<path d="M13.3311 18.2377C12.2972 19.2403 11.1685 19.082 10.0819 18.6071C8.93206 18.1216 7.87714 18.1005 6.66399 18.6071C5.14491 19.2615 4.34317 19.0715 3.43595 18.2377C-1.71205 12.9289 -0.952507 4.84439 4.89173 4.54887C6.31587 4.62275 7.30749 5.32988 8.14087 5.39321C9.38567 5.13991 10.5777 4.41167 11.9069 4.50665C13.4998 4.6333 14.7025 5.26656 15.4936 6.40641C12.2023 8.38005 12.9829 12.7178 16 13.9316C15.3987 15.5147 14.6181 17.0873 13.3205 18.2483L13.3311 18.2377ZM8.03538 4.48554C7.87714 2.13195 9.78654 0.189976 11.9808 0C12.2867 2.72299 9.51226 4.7494 8.03538 4.48554Z" fill="white"/>
</svg>
