<svg width="410" height="250" viewBox="0 0 410 250" fill="none" xmlns="http://www.w3.org/2000/svg">
<g filter="url(#filter0_d_102_228)">
<rect x="20" y="12" width="370" height="210" fill="white"/>
</g>
<mask id="mask0_102_228" style="mask-type:alpha" maskUnits="userSpaceOnUse" x="20" y="12" width="370" height="210">
<rect x="20" y="12" width="370" height="210" fill="white"/>
</mask>
<g mask="url(#mask0_102_228)">
<path d="M291.086 246.99C281.773 246.99 274.659 243.58 269.746 236.76C264.906 229.867 262.486 219.857 262.486 206.73C262.486 193.823 264.906 183.96 269.746 177.14C274.659 170.32 281.773 166.91 291.086 166.91C300.399 166.91 307.476 170.32 312.316 177.14C317.229 183.887 319.686 193.75 319.686 206.73C319.686 219.783 317.229 229.757 312.316 236.65C307.476 243.543 300.399 246.99 291.086 246.99ZM291.086 235.88C296.146 235.88 299.813 233.57 302.086 228.95C304.433 224.257 305.606 216.85 305.606 206.73C305.606 196.757 304.433 189.497 302.086 184.95C299.813 180.33 296.146 178.02 291.086 178.02C286.026 178.02 282.323 180.33 279.976 184.95C277.703 189.497 276.566 196.757 276.566 206.73C276.566 216.85 277.703 224.257 279.976 228.95C282.323 233.57 286.026 235.88 291.086 235.88Z" fill="#F1F3FF"/>
<path d="M369.143 205.74C373.763 206.987 377.283 209.26 379.703 212.56C382.196 215.86 383.443 219.93 383.443 224.77C383.443 231.59 380.913 236.98 375.853 240.94C370.866 244.9 364.12 246.88 355.613 246.88C350.333 246.88 345.236 246.073 340.323 244.46C335.483 242.847 331.486 240.61 328.333 237.75L333.173 227.41C340.14 232.837 347.436 235.55 355.063 235.55C360.05 235.55 363.753 234.56 366.173 232.58C368.666 230.6 369.913 227.593 369.913 223.56C369.913 219.6 368.666 216.703 366.173 214.87C363.68 212.963 359.83 212.01 354.623 212.01H344.283V200.68H352.753C362.873 200.68 367.933 196.83 367.933 189.13C367.933 185.537 366.833 182.787 364.633 180.88C362.433 178.973 359.353 178.02 355.393 178.02C348.353 178.02 341.313 180.733 334.273 186.16L329.543 175.82C332.696 173.033 336.656 170.833 341.423 169.22C346.263 167.533 351.213 166.69 356.273 166.69C363.973 166.69 370.096 168.597 374.643 172.41C379.263 176.15 381.573 181.173 381.573 187.48C381.5 191.807 380.363 195.583 378.163 198.81C376.036 201.963 373.03 204.273 369.143 205.74Z" fill="#F1F3FF"/>
</g>
<defs>
<filter id="filter0_d_102_228" x="0" y="0" width="410" height="250" filterUnits="userSpaceOnUse" color-interpolation-filters="sRGB">
<feFlood flood-opacity="0" result="BackgroundImageFix"/>
<feColorMatrix in="SourceAlpha" type="matrix" values="0 0 0 0 0 0 0 0 0 0 0 0 0 0 0 0 0 0 127 0" result="hardAlpha"/>
<feOffset dy="8"/>
<feGaussianBlur stdDeviation="10"/>
<feComposite in2="hardAlpha" operator="out"/>
<feColorMatrix type="matrix" values="0 0 0 0 0.917969 0 0 0 0 0.926711 0 0 0 0 0.979167 0 0 0 1 0"/>
<feBlend mode="normal" in2="BackgroundImageFix" result="effect1_dropShadow_102_228"/>
<feBlend mode="normal" in="SourceGraphic" in2="effect1_dropShadow_102_228" result="shape"/>
</filter>
</defs>
</svg>
