<svg width="410" height="250" viewBox="0 0 410 250" fill="none" xmlns="http://www.w3.org/2000/svg">
<g filter="url(#filter0_d_102_219)">
<rect x="20" y="12" width="370" height="210" fill="white"/>
</g>
<mask id="mask0_102_219" style="mask-type:alpha" maskUnits="userSpaceOnUse" x="20" y="12" width="370" height="210">
<rect x="20" y="12" width="370" height="210" fill="white"/>
</mask>
<g mask="url(#mask0_102_219)">
<path d="M290.979 247.99C281.665 247.99 274.552 244.58 269.639 237.76C264.799 230.867 262.379 220.857 262.379 207.73C262.379 194.823 264.799 184.96 269.639 178.14C274.552 171.32 281.665 167.91 290.979 167.91C300.292 167.91 307.369 171.32 312.209 178.14C317.122 184.887 319.579 194.75 319.579 207.73C319.579 220.783 317.122 230.757 312.209 237.65C307.369 244.543 300.292 247.99 290.979 247.99ZM290.979 236.88C296.039 236.88 299.705 234.57 301.979 229.95C304.325 225.257 305.499 217.85 305.499 207.73C305.499 197.757 304.325 190.497 301.979 185.95C299.705 181.33 296.039 179.02 290.979 179.02C285.919 179.02 282.215 181.33 279.869 185.95C277.595 190.497 276.459 197.757 276.459 207.73C276.459 217.85 277.595 225.257 279.869 229.95C282.215 234.57 285.919 236.88 290.979 236.88Z" fill="#F1F3FF"/>
<path d="M384.326 235.45V247H331.746V236.55L358.366 207.84C361.519 204.393 363.829 201.24 365.296 198.38C366.762 195.52 367.496 192.697 367.496 189.91C367.496 186.317 366.432 183.603 364.306 181.77C362.252 179.937 359.282 179.02 355.396 179.02C348.502 179.02 341.426 181.733 334.166 187.16L329.436 176.82C332.516 174.033 336.476 171.833 341.316 170.22C346.156 168.533 351.032 167.69 355.946 167.69C363.792 167.69 369.989 169.633 374.536 173.52C379.156 177.333 381.466 182.503 381.466 189.03C381.466 193.503 380.476 197.72 378.496 201.68C376.589 205.64 373.362 210.077 368.816 214.99L349.566 235.45H384.326Z" fill="#F1F3FF"/>
</g>
<defs>
<filter id="filter0_d_102_219" x="0" y="0" width="410" height="250" filterUnits="userSpaceOnUse" color-interpolation-filters="sRGB">
<feFlood flood-opacity="0" result="BackgroundImageFix"/>
<feColorMatrix in="SourceAlpha" type="matrix" values="0 0 0 0 0 0 0 0 0 0 0 0 0 0 0 0 0 0 127 0" result="hardAlpha"/>
<feOffset dy="8"/>
<feGaussianBlur stdDeviation="10"/>
<feComposite in2="hardAlpha" operator="out"/>
<feColorMatrix type="matrix" values="0 0 0 0 0.917969 0 0 0 0 0.926711 0 0 0 0 0.979167 0 0 0 1 0"/>
<feBlend mode="normal" in2="BackgroundImageFix" result="effect1_dropShadow_102_219"/>
<feBlend mode="normal" in="SourceGraphic" in2="effect1_dropShadow_102_219" result="shape"/>
</filter>
</defs>
</svg>
