<svg width="1170" height="502" viewBox="0 0 1170 502" fill="none" xmlns="http://www.w3.org/2000/svg">
<rect width="1170" height="502" fill="#101010"/>
<mask id="mask0_102_249" style="mask-type:alpha" maskUnits="userSpaceOnUse" x="0" y="0" width="1170" height="502">
<rect width="1170" height="502" fill="#101010"/>
</mask>
<g mask="url(#mask0_102_249)">
<g opacity="0.1">
<path d="M1025.26 195V164.93C1025.26 146.049 1029.8 130.664 1038.86 118.776C1048.16 106.655 1061.87 98.7296 1080 95V117.727C1071.89 119.592 1065.45 123.089 1060.68 128.217C1055.91 133.112 1052.81 139.056 1051.38 146.049H1072.85V195H1025.26ZM953 195V164.93C953 146.049 957.531 130.664 966.594 118.776C975.896 106.655 989.49 98.7296 1007.38 95V117.727C999.269 119.592 992.829 123.089 988.059 128.217C983.289 133.112 980.189 139.056 978.758 146.049H1000.22V195H953Z" fill="white"/>
</g>
<line x1="170" y1="352.5" x2="870" y2="352.5" stroke="white"/>
</g>
</svg>
