<svg width="1512" height="850" viewBox="0 0 1512 850" fill="none" xmlns="http://www.w3.org/2000/svg">
<path d="M0 0H1512V800H1341.5V750H1049V800H756V850H464V800H171V750H0V800V0Z" fill="#101010"/>
<mask id="mask0_102_3" style="mask-type:alpha" maskUnits="userSpaceOnUse" x="0" y="0" width="1512" height="850">
<path d="M0 0H1512V800H1341.5V750H1049V800H756V850H464V800H171V750H0V800V0Z" fill="#101010"/>
</mask>
<g mask="url(#mask0_102_3)">
<g opacity="0.8" filter="url(#filter0_f_102_3)">
<circle cx="221.5" cy="183.5" r="221.5" fill="#F7931E"/>
</g>
<g opacity="0.7" filter="url(#filter1_f_102_3)">
<circle cx="1362" cy="337" r="255" fill="#4035B7"/>
</g>
</g>
<line opacity="0.07" x1="171.5" y1="90" x2="171.5" y2="800" stroke="white"/>
<line opacity="0.07" x1="464.5" y1="90" x2="464.5" y2="800" stroke="white"/>
<line opacity="0.07" x1="756.5" y1="90" x2="756.5" y2="800" stroke="white"/>
<line opacity="0.07" x1="1048.5" y1="90" x2="1048.5" y2="800" stroke="white"/>
<line opacity="0.07" x1="1340.5" y1="90" x2="1340.5" y2="800" stroke="white"/>
<circle cx="1340.5" cy="398.5" r="5" fill="#00FFFF" stroke="#101010"/>
<circle cx="1048.5" cy="712.5" r="5" fill="#F7931E" stroke="#101010"/>
<circle cx="464.5" cy="605.5" r="5" fill="#4035B7" stroke="#101010"/>
<circle cx="171.5" cy="240.5" r="5" fill="#F7931E" stroke="#101010"/>
<circle cx="756.5" cy="144.5" r="5" fill="#B24E75" stroke="#101010"/>
<defs>
<filter id="filter0_f_102_3" x="-750" y="-788" width="1943" height="1943" filterUnits="userSpaceOnUse" color-interpolation-filters="sRGB">
<feFlood flood-opacity="0" result="BackgroundImageFix"/>
<feBlend mode="normal" in="SourceGraphic" in2="BackgroundImageFix" result="shape"/>
<feGaussianBlur stdDeviation="375" result="effect1_foregroundBlur_102_3"/>
</filter>
<filter id="filter1_f_102_3" x="357" y="-668" width="2010" height="2010" filterUnits="userSpaceOnUse" color-interpolation-filters="sRGB">
<feFlood flood-opacity="0" result="BackgroundImageFix"/>
<feBlend mode="normal" in="SourceGraphic" in2="BackgroundImageFix" result="shape"/>
<feGaussianBlur stdDeviation="375" result="effect1_foregroundBlur_102_3"/>
</filter>
</defs>
</svg>
