<svg width="36" height="36" viewBox="0 0 36 36" fill="none" xmlns="http://www.w3.org/2000/svg">
<path d="M7.71429 2.57143V7.71429H2.57143V2.57143H7.71429ZM0 0V10.2857H10.2857V0H0ZM20.5714 6.42857V11.5714H15.4286V6.42857H20.5714ZM12.8571 3.85714V14.1429H23.1429V3.85714H12.8571ZM7.71429 18V23.1429H2.57143V18H7.71429ZM0 15.4286V25.7143H10.2857V15.4286H0Z" fill="#F7931E"/>
<path d="M25.7143 10.2857V18H18V25.7143H10.2857V36H36V10.2857H25.7143ZM20.5714 20.5714H25.7143V25.7143H20.5714V20.5714ZM18 33.4286H12.8571V28.2857H18V33.4286ZM25.7143 33.4286H20.5714V28.2857H25.7143V33.4286ZM33.4286 33.4286H28.2857V28.2857H33.4286V33.4286ZM33.4286 25.7143H28.2857V20.5714H33.4286V25.7143ZM28.2857 18V12.8571H33.4286V18H28.2857Z" fill="#F7931E"/>
</svg>
