<svg width="110" height="110" viewBox="0 0 110 110" fill="none" xmlns="http://www.w3.org/2000/svg">
<path d="M5 38L61 17" stroke="#353641"/>
<path d="M106 78L91 51" stroke="#353641"/>
<path d="M61 17L50 50" stroke="#353641"/>
<path d="M5 38L50 50" stroke="#353641"/>
<path d="M5 38L105 78" stroke="#353641"/>
<path d="M37 86L50 50" stroke="#353641"/>
<path d="M37 86L90 51" stroke="#353641"/>
<path d="M91 51L50 50" stroke="#353641"/>
<path d="M5 39C5.55228 39 6 38.5523 6 38C6 37.4477 5.55228 37 5 37C4.44772 37 4 37.4477 4 38C4 38.5523 4.44772 39 5 39Z" fill="#F7931E"/>
<path d="M61 18C61.5523 18 62 17.5523 62 17C62 16.4477 61.5523 16 61 16C60.4477 16 60 16.4477 60 17C60 17.5523 60.4477 18 61 18Z" fill="#F7931E"/>
<path d="M37 87C37.5523 87 38 86.5523 38 86C38 85.4477 37.5523 85 37 85C36.4477 85 36 85.4477 36 86C36 86.5523 36.4477 87 37 87Z" fill="#F7931E"/>
<path d="M91 52C91.5523 52 92 51.5523 92 51C92 50.4477 91.5523 50 91 50C90.4477 50 90 50.4477 90 51C90 51.5523 90.4477 52 91 52Z" fill="#F7931E"/>
<path d="M106 79C106.552 79 107 78.5523 107 78C107 77.4477 106.552 77 106 77C105.448 77 105 77.4477 105 78C105 78.5523 105.448 79 106 79Z" fill="#F7931E"/>
<path fill-rule="evenodd" clip-rule="evenodd" d="M89.0588 80.9322C90.253 81.9934 91 83.5072 91 85.1875C91 88.3977 88.2737 91 84.9107 91C83.0047 91 81.3032 90.1641 80.1866 88.8553L71.2468 80.3219C69.8757 79.2561 69 77.6319 69 75.8125C69 72.6023 71.7263 70 75.0893 70C76.7708 70 78.2931 70.6506 79.3951 71.7024L79.4175 71.681L89.084 80.9081L89.0588 80.9322Z" stroke="white" stroke-width="2"/>
<path d="M65 63L73 71" stroke="white" stroke-width="2"/>
<path d="M61 66L69 74" stroke="white" stroke-width="2"/>
<path d="M49.5 53C51.433 53 53 51.433 53 49.5C53 47.567 51.433 46 49.5 46C47.567 46 46 47.567 46 49.5C46 51.433 47.567 53 49.5 53Z" stroke="#F7931E" stroke-width="2" stroke-linecap="square"/>
<path d="M49.5 50C49.7761 50 50 49.7761 50 49.5C50 49.2239 49.7761 49 49.5 49C49.2239 49 49 49.2239 49 49.5C49 49.7761 49.2239 50 49.5 50Z" stroke="#F7931E" stroke-width="2" stroke-linecap="square"/>
<path d="M49 70C60.598 70 70 60.598 70 49C70 37.402 60.598 28 49 28C37.402 28 28 37.402 28 49C28 60.598 37.402 70 49 70Z" stroke="white" stroke-width="2" stroke-linecap="square"/>
</svg>
