<svg width="36" height="36" viewBox="0 0 36 36" fill="none" xmlns="http://www.w3.org/2000/svg">
<path d="M6.435 0.133743C6.66417 0.243902 6.85755 0.416528 6.9929 0.631741C7.12824 0.846955 7.20003 1.09601 7.2 1.35022C7.2 2.84382 7.7616 3.70399 8.4654 4.75132L8.5176 4.8269C9.1152 5.71586 9.9 6.88015 9.9 8.5483C9.9 10.2507 9.0414 11.7515 7.7328 12.6422C8.0766 12.9301 8.3808 13.2846 8.6436 13.7093C9.5004 15.095 9.9 17.213 9.9 20.2542C9.9 23.335 9.486 27.0348 8.811 29.9896C8.4762 31.458 8.0604 32.813 7.5654 33.8298C7.3317 34.3357 7.02214 34.8029 6.6474 35.2154C6.2766 35.5951 5.706 36 4.95 36C4.194 36 3.6234 35.5951 3.2544 35.2154C2.87858 34.8038 2.5689 34.3363 2.3364 33.8298C1.8396 32.8112 1.4238 31.458 1.089 29.9878C0.386905 26.7896 0.021913 23.5266 1.73431e-06 20.2524C1.73431e-06 17.2112 0.399602 15.095 1.2564 13.7093C1.50084 13.3071 1.80836 12.9468 2.1672 12.6422C1.49899 12.1887 0.952088 11.5784 0.574295 10.8647C0.196502 10.1511 -0.00067465 9.35575 1.73431e-06 8.5483C1.73431e-06 7.88608 1.55568e-06 6.74698 0.689401 5.27678C1.3644 3.83716 2.6478 2.1834 5.0058 0.295701C5.20454 0.136774 5.44416 0.037244 5.69703 0.00858839C5.9499 -0.0200672 6.20573 0.0233189 6.435 0.133743ZM2.7 8.54651C2.7 9.14308 2.93705 9.71703 3.35901 10.1389C3.78097 10.5607 4.35326 10.7977 4.95 10.7977C5.54674 10.7977 6.11903 10.5607 6.54099 10.1389C6.96295 9.71703 7.2 9.14488 7.2 8.5483C7.2 7.75832 6.867 7.21126 6.2244 6.25571L6.2028 6.22332C5.7906 5.61149 5.3028 4.88628 4.9572 3.95593C3.9798 4.94926 3.4398 5.77344 3.1356 6.42127C2.7 7.34982 2.7 8.01205 2.7 8.54651ZM3.5532 15.1274C3.1068 15.8508 2.7 17.3336 2.7 20.2542C2.7 23.1352 3.0924 26.6335 3.7206 29.3886C4.0374 30.7742 4.3974 31.8989 4.7628 32.6475C4.8294 32.7861 4.8924 32.9012 4.95 32.9984C5.0076 32.9012 5.0706 32.7861 5.1372 32.6475C5.5026 31.8989 5.8626 30.7724 6.1794 29.3886C6.8094 26.6353 7.2 23.137 7.2 20.2542C7.2 17.3336 6.7932 15.8508 6.3468 15.1274C6.21217 14.8838 6.00868 14.6854 5.7618 14.5569C5.50617 14.4456 5.22857 14.3939 4.95 14.4057C4.59 14.4057 4.3326 14.4615 4.1382 14.5569C3.89132 14.6854 3.68783 14.8838 3.5532 15.1274ZM14.4 23.2468C13.4464 23.0869 12.5188 22.7987 11.6424 22.3902C11.6951 21.3696 11.7101 20.3474 11.6874 19.3256C12.4992 19.8709 13.4154 20.2722 14.4 20.4953V15.2965C14.4 14.5806 14.6845 13.894 15.1908 13.3878C15.6972 12.8816 16.3839 12.5972 17.1 12.5972H24.3C24.2999 11.0869 23.8773 9.60665 23.08 8.32379C22.2826 7.04093 21.1423 6.00656 19.7879 5.33756C18.4334 4.66856 16.9188 4.39158 15.4151 4.53793C13.9115 4.68428 12.4788 5.24812 11.2788 6.16574C10.9188 5.1706 10.4058 4.40941 10.0494 3.88035L9.9774 3.77238C11.5946 2.63264 13.494 1.95897 15.4681 1.82491C17.4422 1.69085 19.4152 2.10155 21.1717 3.01217C22.9283 3.92279 24.4008 5.29834 25.4286 6.98866C26.4564 8.67898 27 10.6191 27 12.5972H33.3C34.0161 12.5972 34.7028 12.8816 35.2092 13.3878C35.7155 13.894 36 14.5806 36 15.2965V31.4922C36 32.2081 35.7155 32.8947 35.2092 33.4009C34.7028 33.9071 34.0161 34.1915 33.3 34.1915H17.1C16.3839 34.1915 15.6972 33.9071 15.1908 33.4009C14.6845 32.8947 14.4 32.2081 14.4 31.4922V23.245V23.2468ZM17.1 23.3602V31.494H33.3V15.2983H26.658C26.0972 17.4668 24.8762 19.4074 23.1638 20.8517C21.4515 22.296 19.3325 23.1726 17.1 23.3602ZM23.8392 15.2983H17.1V20.6483C18.6124 20.4788 20.0464 19.8871 21.2382 18.941C22.43 17.9949 23.3314 16.7325 23.8392 15.2983Z" fill="#F7931E"/>
</svg>
