<svg width="39" height="39" viewBox="0 0 39 39" fill="none" xmlns="http://www.w3.org/2000/svg">
<path d="M25.9436 23.7538C26.3173 25.3353 26.3284 26.9807 25.9758 28.567C25.6233 30.1533 24.9164 31.6392 23.908 32.9135C22.8997 34.1878 21.616 35.2173 20.1532 35.925C18.6905 36.6327 17.0865 37.0002 15.4615 37V28.3846M25.9436 23.7538C29.3716 21.2568 32.1603 17.9842 34.0818 14.2035C36.0034 10.4227 37.0033 6.24105 37 2.00001C32.7593 1.99694 28.5779 2.99703 24.7975 4.91859C21.0171 6.84014 17.7448 9.62867 15.2479 13.0564M25.9436 23.7538C22.8239 26.0356 19.2493 27.6154 15.4615 28.3846M15.4615 28.3846C15.2758 28.4224 15.0898 28.4583 14.9033 28.4923C13.275 27.2011 11.8007 25.7268 10.5095 24.0985C10.5434 23.9114 10.5775 23.7247 10.6154 23.5385M15.2479 13.0564C13.6664 12.6824 12.0207 12.6711 10.4342 13.0235C8.84772 13.3758 7.36153 14.0827 6.08705 15.0911C4.81257 16.0995 3.78284 17.3833 3.07504 18.8462C2.36723 20.3091 1.9997 21.9133 2 23.5385H10.6154M15.2479 13.0564C12.9665 16.1756 11.3849 19.7514 10.6154 23.5385M6.59667 27.8282C5.41596 28.7062 4.49797 29.8905 3.9421 31.2528C3.38622 32.6151 3.21365 34.1036 3.44308 35.5569C4.89661 35.7862 6.38516 35.6133 7.7475 35.0571C9.10983 34.5009 10.294 33.5826 11.1718 32.4015M27.5769 14.1154C27.5769 14.8294 27.2933 15.5142 26.7884 16.0191C26.2835 16.524 25.5987 16.8077 24.8846 16.8077C24.1706 16.8077 23.4858 16.524 22.9809 16.0191C22.476 15.5142 22.1923 14.8294 22.1923 14.1154C22.1923 13.4013 22.476 12.7165 22.9809 12.2116C23.4858 11.7067 24.1706 11.4231 24.8846 11.4231C25.5987 11.4231 26.2835 11.7067 26.7884 12.2116C27.2933 12.7165 27.5769 13.4013 27.5769 14.1154Z" stroke="#F7931E" stroke-width="2.6" stroke-linecap="round" stroke-linejoin="round"/>
</svg>
