<svg width="184" height="48" viewBox="0 0 184 48" fill="none" xmlns="http://www.w3.org/2000/svg">
<path d="M62.709 23.5928C61.0531 23.5928 59.5607 23.2737 58.2318 22.6355C56.9234 21.9801 55.891 21.1005 55.1346 19.9966C54.3782 18.8755 54 17.6164 54 16.2193C54 14.8223 54.3782 13.5718 55.1346 12.4679C55.891 11.3641 56.9234 10.4931 58.2318 9.85489C59.5607 9.21672 61.0531 8.89764 62.709 8.89764C63.8947 8.89764 64.9987 9.07874 66.0209 9.44095C67.043 9.7859 67.9221 10.2688 68.6581 10.8898C69.4145 11.4934 69.9563 12.2178 70.2834 13.063L66.7568 14.3566C66.4502 13.6494 65.9289 13.0802 65.1929 12.649C64.4774 12.2178 63.6494 12.0023 62.709 12.0023C61.8299 12.0023 61.0428 12.1834 60.3478 12.5456C59.6731 12.9078 59.1416 13.4079 58.7531 14.0461C58.3647 14.6843 58.1705 15.4173 58.1705 16.2452C58.1705 17.0731 58.3647 17.8061 58.7531 18.4443C59.1416 19.0825 59.6731 19.5827 60.3478 19.9449C61.0428 20.3071 61.8299 20.4882 62.709 20.4882C63.6698 20.4882 64.508 20.2726 65.2236 19.8414C65.9391 19.4102 66.4502 18.8324 66.7568 18.108L70.2834 19.4533C69.9563 20.2467 69.4247 20.9625 68.6888 21.6007C67.9528 22.2216 67.0737 22.7132 66.0515 23.0754C65.0293 23.4203 63.9152 23.5928 62.709 23.5928Z" fill="white"/>
<path d="M78.3314 23.5928C77.1661 23.5928 76.1541 23.4289 75.2955 23.1012C74.4369 22.7735 73.7724 22.3078 73.3022 21.7042C72.832 21.0832 72.5969 20.3675 72.5969 19.5568C72.5969 18.7807 72.8014 18.0907 73.2102 17.4871C73.6191 16.8661 74.2529 16.3487 75.1115 15.9348C75.9701 15.5208 77.0536 15.2276 78.362 15.0551L83.8205 14.3048V16.892L79.1287 17.5647C78.3314 17.6854 77.7385 17.901 77.3501 18.2115C76.9616 18.5219 76.7674 18.9273 76.7674 19.4274C76.7674 19.9104 76.9821 20.2985 77.4114 20.5917C77.8612 20.8676 78.4131 21.0056 79.0673 21.0056C79.9055 21.0056 80.6415 20.859 81.2753 20.5658C81.9294 20.2553 82.4303 19.8328 82.7779 19.2981C83.1458 18.7634 83.3298 18.177 83.3298 17.5388V13.9168C83.3298 13.3131 83.0436 12.8129 82.4712 12.4162C81.9192 12.0022 81.1833 11.7953 80.2633 11.7953C79.4047 11.7953 78.638 11.9936 77.9634 12.3903C77.3092 12.7698 76.8288 13.2786 76.5221 13.9168L73.2409 12.5714C73.568 11.8298 74.0791 11.1916 74.7742 10.6569C75.4897 10.105 76.3279 9.67379 77.2887 9.36333C78.2496 9.05287 79.2922 8.89764 80.4166 8.89764C81.7863 8.89764 82.9925 9.11324 84.0351 9.54443C85.0778 9.95838 85.8853 10.5448 86.4577 11.3037C87.0506 12.0454 87.347 12.9164 87.347 13.9168V23.2823H83.5445V20.8763L84.4031 20.8245C83.9738 21.4282 83.4627 21.937 82.8699 22.351C82.277 22.7477 81.6024 23.0581 80.8459 23.2823C80.0895 23.4893 79.2513 23.5928 78.3314 23.5928Z" fill="white"/>
<path d="M97.4077 23.5928C95.6291 23.5928 94.0754 23.2392 92.7465 22.5321C91.4381 21.8076 90.5386 20.8331 90.048 19.6085L93.0532 18.3926C93.4825 19.186 94.0754 19.8069 94.8318 20.2553C95.6086 20.7038 96.4673 20.928 97.4077 20.928C98.1437 20.928 98.7263 20.79 99.1556 20.5141C99.5849 20.2381 99.7996 19.8759 99.7996 19.4274C99.7996 19.1515 99.7076 18.9273 99.5236 18.7548C99.3601 18.5651 99.1249 18.4098 98.8183 18.2891C98.5321 18.1511 98.2152 18.039 97.8677 17.9528L95.1384 17.306C93.7278 16.961 92.6545 16.4349 91.9186 15.7278C91.203 15.0206 90.8453 14.1841 90.8453 13.2182C90.8453 12.3558 91.1008 11.6055 91.6119 10.9674C92.1434 10.312 92.8692 9.80315 93.7892 9.44095C94.7296 9.07874 95.8029 8.89764 97.009 8.89764C98.5832 8.89764 99.9734 9.21672 101.18 9.85489C102.386 10.4931 103.244 11.39 103.755 12.5456L100.689 13.7615C100.403 13.1234 99.9222 12.6145 99.2476 12.2351C98.573 11.8556 97.8166 11.6659 96.9784 11.6659C96.3037 11.6659 95.7722 11.7953 95.3838 12.054C94.9953 12.3127 94.8011 12.649 94.8011 13.063C94.8011 13.3217 94.8829 13.5459 95.0464 13.7357C95.21 13.9254 95.4349 14.0806 95.7211 14.2014C96.0277 14.3221 96.3753 14.4342 96.7637 14.5377L99.4316 15.2103C100.801 15.5553 101.854 16.0727 102.59 16.7627C103.347 17.4526 103.725 18.2977 103.725 19.2981C103.725 20.1432 103.459 20.8935 102.927 21.5489C102.396 22.1871 101.66 22.6873 100.72 23.0495C99.7791 23.4117 98.6752 23.5928 97.4077 23.5928Z" fill="white"/>
<path d="M114.417 23.4376C112.536 23.4376 111.074 23.0064 110.032 22.144C109.01 21.2643 108.499 20.0311 108.499 18.4443V12.2351H105.616V9.2081H105.923C106.74 9.2081 107.374 9.027 107.824 8.66479C108.274 8.30259 108.499 7.77653 108.499 7.08661V6H112.516V9.2081H116.349V12.2351H112.516V18.2632C112.516 18.7289 112.608 19.1256 112.792 19.4533C112.996 19.781 113.303 20.0311 113.712 20.2036C114.141 20.3761 114.683 20.4623 115.337 20.4623C115.48 20.4623 115.644 20.4537 115.828 20.4364C116.032 20.4192 116.226 20.4019 116.41 20.3847V23.2823C116.124 23.3168 115.797 23.3513 115.429 23.3858C115.061 23.4203 114.724 23.4376 114.417 23.4376Z" fill="white"/>
<path d="M121.503 29C121.054 29 120.614 28.9655 120.185 28.8965C119.755 28.8448 119.367 28.7499 119.019 28.6119V25.766C119.285 25.8178 119.602 25.8695 119.97 25.9213C120.358 25.973 120.716 25.9989 121.043 25.9989C121.963 25.9989 122.628 25.8178 123.037 25.4556C123.466 25.0934 123.844 24.619 124.171 24.0326L125.275 21.8594L125.214 24.7053L117.946 9.2081H122.27L127.36 20.6434H125.827L130.887 9.2081H135.241L127.974 24.7053C127.544 25.6194 127.023 26.3956 126.41 27.0337C125.796 27.6719 125.081 28.1549 124.263 28.4826C123.466 28.8275 122.546 29 121.503 29Z" fill="white"/>
<path d="M137.447 23.2823V9.2081H141.219V11.9764L140.913 11.4848C141.301 10.6397 141.935 10.0015 142.814 9.5703C143.713 9.12186 144.756 8.89764 145.942 8.89764C147.168 8.89764 148.252 9.12186 149.192 9.5703C150.153 10.0187 150.899 10.6483 151.431 11.4589C151.962 12.2523 152.228 13.1751 152.228 14.2272V23.2823H148.211V15.0292C148.211 14.4083 148.068 13.8736 147.782 13.4252C147.495 12.9768 147.097 12.6318 146.586 12.3903C146.095 12.1316 145.512 12.0023 144.838 12.0023C144.184 12.0023 143.601 12.1316 143.09 12.3903C142.579 12.6318 142.18 12.9768 141.894 13.4252C141.608 13.8736 141.465 14.4083 141.465 15.0292V23.2823H137.447Z" fill="white"/>
<path d="M163.537 23.5928C161.82 23.5928 160.317 23.2651 159.029 22.6097C157.741 21.9543 156.739 21.066 156.024 19.9449C155.308 18.8238 154.95 17.5819 154.95 16.2193C154.95 14.805 155.308 13.5546 156.024 12.4679C156.76 11.3641 157.751 10.4931 158.998 9.85489C160.266 9.21672 161.676 8.89764 163.23 8.89764C164.539 8.89764 165.683 9.07874 166.665 9.44095C167.666 9.80315 168.515 10.3033 169.21 10.9415C169.905 11.5797 170.437 12.3127 170.805 13.1406C171.173 13.9513 171.356 14.8309 171.356 15.7795C171.356 16.021 171.336 16.2711 171.295 16.5298C171.275 16.7885 171.224 17.0127 171.142 17.2025H158.262V14.6153H168.873L166.971 15.8313C167.155 15.0379 167.104 14.3307 166.818 13.7098C166.552 13.0889 166.102 12.5973 165.469 12.2351C164.855 11.8729 164.109 11.6918 163.23 11.6918C162.392 11.6918 161.646 11.8729 160.992 12.2351C160.337 12.5801 159.836 13.0975 159.489 13.7874C159.162 14.4601 159.039 15.2793 159.121 16.2452C159.039 17.1076 159.172 17.8751 159.52 18.5478C159.888 19.2032 160.419 19.712 161.114 20.0742C161.83 20.4364 162.647 20.6175 163.567 20.6175C164.487 20.6175 165.264 20.4537 165.898 20.126C166.552 19.7983 167.063 19.3585 167.431 18.8065L170.682 20.1519C170.355 20.8245 169.844 21.4196 169.149 21.937C168.453 22.4544 167.626 22.8598 166.665 23.153C165.724 23.4462 164.682 23.5928 163.537 23.5928Z" fill="white"/>
<path d="M182.007 23.4376C180.126 23.4376 178.664 23.0064 177.622 22.144C176.599 21.2643 176.088 20.0311 176.088 18.4443V12.2351H173.206V9.2081H173.512C174.33 9.2081 174.964 9.027 175.414 8.66479C175.863 8.30259 176.088 7.77653 176.088 7.08661V6H180.105V9.2081H183.939V12.2351H180.105V18.2632C180.105 18.7289 180.197 19.1256 180.381 19.4533C180.586 19.781 180.893 20.0311 181.301 20.2036C181.731 20.3761 182.273 20.4623 182.927 20.4623C183.07 20.4623 183.233 20.4537 183.417 20.4364C183.622 20.4192 183.816 20.4019 184 20.3847V23.2823C183.714 23.3168 183.387 23.3513 183.019 23.3858C182.651 23.4203 182.313 23.4376 182.007 23.4376Z" fill="white"/>
<path d="M58.515 37.5837H58.2085C58.2085 37.1374 58.097 36.8327 57.874 36.6694C57.6572 36.5061 57.3507 36.4299 56.9543 36.4408L56.1553 36.4571C55.9324 36.4626 55.7713 36.5007 55.6722 36.5714C55.5731 36.6367 55.5112 36.732 55.4864 36.8571C55.4617 36.9769 55.4493 37.1673 55.4493 37.4286V38.7347L57.1958 38.7429L57.1308 38.0408H57.5396V39.7551H57.233C57.233 39.5537 57.2051 39.4014 57.1494 39.298C57.0936 39.1891 57.0069 39.1184 56.8893 39.0857C56.7778 39.0476 56.6198 39.0286 56.4155 39.0286L56.1275 39.0367L55.4493 39.0612V40.9306C55.4493 41.2136 55.44 41.4259 55.4214 41.5673L57.1958 41.5429C57.6294 41.5374 57.9607 41.4422 58.1899 41.2571C58.419 41.0667 58.5336 40.7401 58.5336 40.2776H58.8495L58.7937 41.8694H54V41.6C54.2168 41.5946 54.3716 41.551 54.4645 41.4694C54.5574 41.3878 54.6101 41.2925 54.6224 41.1837C54.6348 41.0694 54.641 40.8735 54.641 40.5959V37.0694C54.641 36.8408 54.6503 36.6449 54.6689 36.4816L54 36.5143V36.1551H58.4686L58.515 37.5837Z" fill="white"/>
<path d="M67.9267 36.4245C67.7037 36.419 67.5396 36.4735 67.4343 36.5878C67.329 36.6966 67.2763 36.8844 67.2763 37.151L67.2856 37.3143L67.5272 41.0286C67.5396 41.1537 67.5458 41.3224 67.5458 41.5347L68.2239 41.5102V41.8694H66.1429V41.6C66.3845 41.5946 66.5486 41.5347 66.6353 41.4204C66.722 41.3007 66.7654 41.1156 66.7654 40.8653C66.7654 40.7619 66.7623 40.683 66.7561 40.6286L66.5145 37.151C66.5022 37.1782 66.4836 37.2136 66.4588 37.2571C66.4402 37.3007 66.4185 37.3524 66.3938 37.4122L64.3035 41.951H64.0248L63.5045 40.9306C63.0338 40.0109 62.6684 39.2871 62.4083 38.7592C62.1482 38.2259 61.8942 37.6653 61.6465 37.0776L61.6372 37.4367C61.5815 39.0313 61.5474 40.1687 61.535 40.849C61.535 40.9306 61.5319 40.9905 61.5257 41.0286C61.5257 41.2136 61.5164 41.385 61.4978 41.5429L62.1946 41.5102V41.8694H60.4202V41.6C60.6803 41.5946 60.8475 41.532 60.9218 41.4122C61.0024 41.2871 61.0488 41.0993 61.0612 40.849L61.2656 36.4816L60.5967 36.5061V36.1551H62.0181L63.2816 38.7184C63.7399 39.6653 64.0929 40.3837 64.3406 40.8735H64.3592C64.4335 40.7102 64.5915 40.3592 64.833 39.8204C65.0684 39.298 65.3378 38.7238 65.6413 38.098C65.9943 37.3687 66.2978 36.7211 66.5517 36.1551H67.9267V36.4245Z" fill="white"/>
<path d="M71.8654 36.1388C72.7882 36.1388 73.485 36.2803 73.9557 36.5633C74.4326 36.8463 74.671 37.2626 74.671 37.8122C74.671 38.1279 74.575 38.4299 74.383 38.7184C74.1972 39.0068 73.8721 39.2463 73.4076 39.4367C72.9493 39.6272 72.3392 39.7224 71.5774 39.7224C71.435 39.7224 71.3235 39.7197 71.243 39.7143V40.898C71.243 41.1864 71.2337 41.4014 71.2151 41.5429L72.0698 41.502V41.8694H69.7937V41.6C70.0105 41.5946 70.1653 41.551 70.2582 41.4694C70.3511 41.3878 70.4037 41.2925 70.4161 41.1837C70.4285 41.0694 70.4347 40.8735 70.4347 40.5959V37.0694C70.4347 36.8408 70.444 36.6449 70.4626 36.4816L69.7937 36.5143V36.1551C70.6608 36.1442 71.3513 36.1388 71.8654 36.1388ZM71.8468 36.4571C71.6362 36.4571 71.4876 36.4952 71.4009 36.5714C71.3204 36.6476 71.2739 36.7401 71.2615 36.849C71.2492 36.9524 71.243 37.1456 71.243 37.4286V39.3796C71.3978 39.3959 71.5991 39.4041 71.8468 39.4041C72.1999 39.4041 72.5219 39.3442 72.813 39.2245C73.1103 39.0993 73.3425 38.9224 73.5098 38.6939C73.6832 38.4599 73.7699 38.1878 73.7699 37.8776C73.7699 37.3878 73.5996 37.0286 73.2589 36.8C72.9183 36.5714 72.4476 36.4571 71.8468 36.4571Z" fill="white"/>
<path d="M79.3203 36.0245C80.0325 36.0245 80.6364 36.1741 81.1319 36.4735C81.6335 36.7673 82.0082 37.1429 82.256 37.6C82.5037 38.0571 82.6276 38.5279 82.6276 39.0122C82.6276 39.4912 82.5037 39.9619 82.256 40.4245C82.0144 40.8816 81.649 41.2599 81.1597 41.5592C80.6766 41.8531 80.0883 42 79.3946 42C78.6514 42 78.032 41.8558 77.5366 41.5673C77.0411 41.2789 76.6757 40.9088 76.4403 40.4571C76.205 40 76.0873 39.5184 76.0873 39.0122C76.0873 38.5279 76.2081 38.0571 76.4496 37.6C76.6973 37.1429 77.0628 36.7673 77.5459 36.4735C78.0351 36.1741 78.6266 36.0245 79.3203 36.0245ZM79.2924 36.351C78.8093 36.351 78.3944 36.4735 78.0475 36.7184C77.7007 36.9578 77.4375 37.2707 77.2579 37.6571C77.0844 38.0435 76.9977 38.4463 76.9977 38.8653C76.9977 39.2952 77.0875 39.7279 77.2671 40.1633C77.4468 40.5932 77.7193 40.9524 78.0847 41.2408C78.4501 41.5238 78.8929 41.6653 79.4132 41.6653C79.8963 41.6653 80.3081 41.5456 80.6488 41.3061C80.9956 41.0612 81.2557 40.7483 81.4292 40.3673C81.6088 39.9864 81.6986 39.5864 81.6986 39.1673C81.6986 38.7048 81.6026 38.2585 81.4106 37.8286C81.2186 37.3932 80.9399 37.0395 80.5745 36.7673C80.209 36.4898 79.7817 36.351 79.2924 36.351Z" fill="white"/>
<path d="M88.5389 36.1388C88.6132 36.3619 88.7402 36.7129 88.9198 37.1918C89.0994 37.6653 89.2295 38.0082 89.31 38.2204C89.4958 38.6884 89.6228 39.0204 89.6909 39.2163C89.7404 39.3633 89.821 39.5837 89.9324 39.8776C90.0563 40.1932 90.1554 40.4626 90.2297 40.6857H90.2576C90.4062 40.2612 90.5332 39.9102 90.6385 39.6327C90.9544 38.8435 91.2114 38.1633 91.4096 37.5918C91.4777 37.3905 91.5396 37.2218 91.5954 37.0857C91.7131 36.8082 91.8091 36.6095 91.8834 36.4898L91.1402 36.5143V36.1551H93.0261V36.4245C92.8031 36.4463 92.6328 36.4871 92.5151 36.5469C92.4036 36.6068 92.3014 36.7156 92.2085 36.8735C92.1218 37.0259 92.0103 37.2789 91.8741 37.6327L91.4003 38.8735C90.9048 40.1959 90.5053 41.2218 90.2019 41.951H89.9231L88.1859 37.5837L86.5508 41.951H86.2814L84.6184 37.6082L84.4977 37.2898C84.349 36.8816 84.2592 36.6177 84.2283 36.498L83.708 36.5143V36.1551H85.9655V36.4245C85.7116 36.4354 85.532 36.4735 85.4267 36.5388C85.3214 36.5986 85.2688 36.6993 85.2688 36.8408C85.2688 36.9714 85.2997 37.1293 85.3617 37.3143C85.4731 37.6789 85.6218 38.0871 85.8076 38.5388C85.8386 38.6204 85.8757 38.7184 85.9191 38.8327C85.9624 38.9415 86.012 39.0694 86.0677 39.2163C86.1049 39.3306 86.1513 39.4558 86.2071 39.5918C86.2628 39.7279 86.3031 39.8259 86.3278 39.8857C86.4517 40.1796 86.5446 40.4136 86.6065 40.5878H86.6251C86.749 40.2177 86.876 39.8585 87.006 39.5102C87.229 38.8789 87.4736 38.2122 87.74 37.5102C88.0187 36.7755 88.1859 36.3184 88.2416 36.1388H88.5389Z" fill="white"/>
<path d="M98.657 37.5837H98.3504C98.3504 37.1374 98.239 36.8327 98.016 36.6694C97.7992 36.5061 97.4926 36.4299 97.0963 36.4408L96.2973 36.4571C96.0743 36.4626 95.9133 36.5007 95.8142 36.5714C95.7151 36.6367 95.6532 36.732 95.6284 36.8571C95.6036 36.9769 95.5913 37.1673 95.5913 37.4286V38.7347L97.3378 38.7429L97.2728 38.0408H97.6815V39.7551H97.375C97.375 39.5537 97.3471 39.4014 97.2914 39.298C97.2356 39.1891 97.1489 39.1184 97.0312 39.0857C96.9198 39.0476 96.7618 39.0286 96.5574 39.0286L96.2694 39.0367L95.5913 39.0612V40.9306C95.5913 41.2136 95.582 41.4259 95.5634 41.5673L97.3378 41.5429C97.7714 41.5374 98.1027 41.4422 98.3319 41.2571C98.561 41.0667 98.6756 40.7401 98.6756 40.2776H98.9915L98.9357 41.8694H94.142V41.6C94.3588 41.5946 94.5136 41.551 94.6065 41.4694C94.6994 41.3878 94.752 41.2925 94.7644 41.1837C94.7768 41.0694 94.783 40.8735 94.783 40.5959V37.0694C94.783 36.8408 94.7923 36.6449 94.8109 36.4816L94.142 36.5143V36.1551H98.6106L98.657 37.5837Z" fill="white"/>
<path d="M102.792 36.1469C103.665 36.1578 104.303 36.2884 104.706 36.5388C105.114 36.7837 105.319 37.1401 105.319 37.6082C105.325 37.9837 105.198 38.3211 104.938 38.6204C104.678 38.9197 104.226 39.1265 103.581 39.2408C103.687 39.3116 103.783 39.3959 103.869 39.4939C103.956 39.5918 104.074 39.7442 104.222 39.951L104.854 40.8245C104.99 41.015 105.102 41.1619 105.189 41.2653C105.282 41.3633 105.39 41.4449 105.514 41.5102C105.644 41.5701 105.802 41.6 105.988 41.6V41.8694H104.817C104.65 41.7442 104.507 41.6163 104.39 41.4857C104.278 41.3497 104.145 41.1755 103.99 40.9633L103.368 40.0898L103.247 39.9184C103.148 39.7714 103.061 39.6517 102.987 39.5592C102.913 39.4667 102.832 39.385 102.745 39.3143C102.69 39.3197 102.603 39.3224 102.485 39.3224C102.318 39.3224 102.194 39.3197 102.114 39.3143V40.898C102.114 41.1864 102.104 41.4014 102.086 41.5429L102.755 41.5102V41.8694H100.664V41.6C100.881 41.5946 101.036 41.551 101.129 41.4694C101.222 41.3878 101.274 41.2925 101.287 41.1837C101.299 41.0694 101.305 40.8735 101.305 40.5959V37.0694C101.305 36.8408 101.315 36.6449 101.333 36.4816L100.664 36.5143V36.1551C101.308 36.1442 101.795 36.1388 102.123 36.1388C102.42 36.1388 102.643 36.1415 102.792 36.1469ZM102.755 36.4571C102.538 36.4571 102.383 36.4952 102.29 36.5714C102.197 36.6476 102.145 36.7401 102.132 36.849C102.12 36.9578 102.114 37.151 102.114 37.4286V38.9959C102.299 39.0068 102.436 39.0122 102.522 39.0122C103.786 39.0122 104.418 38.5741 104.418 37.698C104.418 37.2844 104.281 36.9741 104.009 36.7673C103.736 36.5605 103.318 36.4571 102.755 36.4571Z" fill="white"/>
<path d="M109.331 36.4245C109.115 36.4299 108.96 36.4735 108.867 36.5551C108.774 36.6367 108.721 36.7347 108.709 36.849C108.697 36.9578 108.69 37.151 108.69 37.4286V40.898C108.69 41.1864 108.681 41.4014 108.663 41.5429L109.331 41.5102V41.8694H107.241V41.6C107.458 41.5946 107.613 41.551 107.706 41.4694C107.799 41.3878 107.851 41.2925 107.864 41.1837C107.876 41.0694 107.882 40.8735 107.882 40.5959V37.0694C107.882 36.8408 107.891 36.6449 107.91 36.4816L107.241 36.5143V36.1551H109.331V36.4245Z" fill="white"/>
<path d="M117.265 36.4245C117.079 36.4299 116.94 36.4626 116.847 36.5224C116.76 36.5769 116.704 36.6531 116.68 36.751C116.655 36.849 116.642 36.9796 116.642 37.1429V37.4286L116.624 42H116.178L112.146 37.2408H112.137L112.165 40.7347C112.165 41.0993 112.158 41.3687 112.146 41.5429L112.815 41.5102V41.8694H111.115V41.6C111.363 41.6 111.527 41.5374 111.607 41.4122C111.688 41.2871 111.728 41.1347 111.728 40.9551L111.737 36.4816L111.115 36.5143V36.1551H112.22L116.178 40.8082H116.187L116.197 37.0694C116.197 36.8408 116.206 36.6449 116.224 36.4816L115.556 36.5143V36.1551H117.265V36.4245Z" fill="white"/>
<path d="M122.029 36.0245C122.364 36.0245 122.701 36.0653 123.042 36.1469C123.389 36.2231 123.692 36.332 123.952 36.4735L123.915 36.0816H124.426V37.951H124.092C124.048 37.4503 123.841 37.0585 123.469 36.7755C123.104 36.4925 122.646 36.351 122.094 36.351C121.655 36.351 121.252 36.4626 120.887 36.6857C120.527 36.9088 120.239 37.219 120.023 37.6163C119.812 38.0082 119.707 38.4517 119.707 38.9469C119.707 39.4585 119.812 39.9156 120.023 40.3184C120.233 40.7211 120.527 41.0367 120.905 41.2653C121.283 41.4939 121.713 41.6082 122.196 41.6082C122.463 41.6082 122.735 41.5755 123.014 41.5102C123.299 41.4395 123.556 41.3361 123.785 41.2V39.4122L123.135 39.4449V39.0857H125.234V39.3551C124.937 39.3551 124.751 39.4558 124.677 39.6571C124.603 39.8531 124.565 40.0762 124.565 40.3265V41.5755H124.315C124.055 41.5755 123.72 41.6463 123.311 41.7878C123.125 41.8531 122.906 41.9048 122.652 41.9429C122.398 41.981 122.166 42 121.955 42C121.336 42 120.787 41.8857 120.311 41.6571C119.834 41.4231 119.462 41.0912 119.196 40.6612C118.929 40.2313 118.796 39.7224 118.796 39.1347C118.796 38.6014 118.917 38.098 119.159 37.6245C119.406 37.151 119.775 36.7673 120.264 36.4735C120.753 36.1741 121.342 36.0245 122.029 36.0245Z" fill="white"/>
<path d="M131.797 36.0245C132.076 36.0245 132.355 36.0571 132.633 36.1224C132.918 36.1823 133.178 36.2884 133.414 36.4408L133.377 36.0898H133.85V37.8857H133.516C133.485 37.4558 133.327 37.0939 133.042 36.8C132.763 36.5007 132.37 36.351 131.862 36.351C131.491 36.351 131.2 36.4435 130.989 36.6286C130.778 36.8082 130.673 37.034 130.673 37.3061C130.673 37.5238 130.744 37.7116 130.887 37.8694C131.029 38.0272 131.203 38.1578 131.407 38.2612C131.612 38.3646 131.9 38.4925 132.271 38.6449C132.692 38.8136 133.03 38.966 133.284 39.102C133.544 39.2381 133.764 39.4177 133.943 39.6408C134.123 39.8585 134.213 40.1279 134.213 40.449C134.213 40.7537 134.126 41.0231 133.953 41.2571C133.785 41.4912 133.538 41.6735 133.209 41.8041C132.881 41.9347 132.491 42 132.039 42C131.748 42 131.454 41.9646 131.156 41.8939C130.865 41.8231 130.608 41.7197 130.385 41.5837L130.432 41.9347H129.949L129.893 40.1959H130.255C130.286 40.6639 130.469 41.0259 130.803 41.2816C131.138 41.532 131.562 41.6571 132.076 41.6571C132.454 41.6571 132.77 41.5673 133.024 41.3878C133.284 41.2027 133.414 40.9524 133.414 40.6367C133.414 40.4027 133.339 40.2041 133.191 40.0408C133.048 39.8721 132.869 39.7333 132.652 39.6245C132.441 39.5102 132.153 39.3796 131.788 39.2327C131.373 39.0585 131.042 38.9061 130.794 38.7755C130.552 38.6449 130.345 38.4735 130.172 38.2612C129.998 38.0435 129.911 37.7769 129.911 37.4612C129.911 37.2435 129.967 37.0259 130.079 36.8082C130.196 36.5905 130.395 36.4054 130.673 36.2531C130.958 36.1007 131.333 36.0245 131.797 36.0245Z" fill="white"/>
<path d="M139.029 36.0245C139.741 36.0245 140.345 36.1741 140.84 36.4735C141.342 36.7673 141.717 37.1429 141.964 37.6C142.212 38.0571 142.336 38.5279 142.336 39.0122C142.336 39.4912 142.212 39.9619 141.964 40.4245C141.723 40.8816 141.357 41.2599 140.868 41.5592C140.385 41.8531 139.797 42 139.103 42C138.36 42 137.74 41.8558 137.245 41.5673C136.749 41.2789 136.384 40.9088 136.149 40.4571C135.913 40 135.796 39.5184 135.796 39.0122C135.796 38.5279 135.916 38.0571 136.158 37.6C136.406 37.1429 136.771 36.7673 137.254 36.4735C137.743 36.1741 138.335 36.0245 139.029 36.0245ZM139.001 36.351C138.518 36.351 138.103 36.4735 137.756 36.7184C137.409 36.9578 137.146 37.2707 136.966 37.6571C136.793 38.0435 136.706 38.4463 136.706 38.8653C136.706 39.2952 136.796 39.7279 136.976 40.1633C137.155 40.5932 137.428 40.9524 137.793 41.2408C138.158 41.5238 138.601 41.6653 139.122 41.6653C139.605 41.6653 140.017 41.5456 140.357 41.3061C140.704 41.0612 140.964 40.7483 141.138 40.3673C141.317 39.9864 141.407 39.5864 141.407 39.1673C141.407 38.7048 141.311 38.2585 141.119 37.8286C140.927 37.3932 140.648 37.0395 140.283 36.7673C139.917 36.4898 139.49 36.351 139.001 36.351Z" fill="white"/>
<path d="M148.274 37.5837H147.967C147.967 37.1374 147.853 36.8327 147.624 36.6694C147.394 36.5061 147.082 36.4299 146.685 36.4408L146.007 36.4571C145.79 36.4626 145.635 36.5061 145.543 36.5878C145.456 36.6694 145.403 36.7701 145.385 36.8898C145.372 37.0041 145.366 37.1946 145.366 37.4612V38.8653L146.983 38.8735L146.917 38.1633H147.326V39.8857H147.029C147.029 39.6789 147.001 39.5238 146.945 39.4204C146.896 39.317 146.815 39.2463 146.704 39.2082C146.592 39.1701 146.437 39.151 146.239 39.151C146.103 39.151 145.998 39.1537 145.923 39.1592L145.366 39.1837V40.898C145.366 41.1864 145.357 41.4014 145.338 41.5429L146.286 41.5102V41.8694H143.917V41.6C144.134 41.5946 144.288 41.551 144.381 41.4694C144.474 41.3878 144.527 41.2925 144.539 41.1837C144.552 41.0694 144.558 40.8735 144.558 40.5959V37.0694C144.558 36.8408 144.567 36.6449 144.586 36.4816L143.917 36.5143V36.1551H148.227L148.274 37.5837Z" fill="white"/>
<path d="M154.971 37.8776H154.618C154.611 37.5347 154.571 37.2626 154.497 37.0612C154.429 36.8544 154.308 36.702 154.135 36.6041C153.967 36.5007 153.726 36.449 153.41 36.449H152.62L152.611 40.898C152.611 41.1864 152.602 41.4014 152.583 41.5429L153.354 41.5102V41.8694H151.171V41.6C151.437 41.5891 151.608 41.5238 151.682 41.4041C151.762 41.2844 151.803 41.0993 151.803 40.849V40.5959L151.812 36.4571L150.855 36.4653C150.471 36.4653 150.196 36.5796 150.028 36.8082C149.867 37.0313 149.787 37.3878 149.787 37.8776H149.443L149.499 36.1551H154.915L154.971 37.8776Z" fill="white"/>
<path d="M160.82 36.1388C160.895 36.3619 161.022 36.7129 161.201 37.1918C161.381 37.6653 161.511 38.0082 161.591 38.2204C161.777 38.6884 161.904 39.0204 161.972 39.2163C162.022 39.3633 162.102 39.5837 162.214 39.8776C162.338 40.1932 162.437 40.4626 162.511 40.6857H162.539C162.688 40.2612 162.815 39.9102 162.92 39.6327C163.236 38.8435 163.493 38.1633 163.691 37.5918C163.759 37.3905 163.821 37.2218 163.877 37.0857C163.994 36.8082 164.09 36.6095 164.165 36.4898L163.422 36.5143V36.1551H165.307V36.4245C165.084 36.4463 164.914 36.4871 164.796 36.5469C164.685 36.6068 164.583 36.7156 164.49 36.8735C164.403 37.0259 164.292 37.2789 164.155 37.6327L163.682 38.8735C163.186 40.1959 162.787 41.2218 162.483 41.951H162.204L160.467 37.5837L158.832 41.951H158.563L156.9 37.6082L156.779 37.2898C156.63 36.8816 156.541 36.6177 156.51 36.498L155.989 36.5143V36.1551H158.247V36.4245C157.993 36.4354 157.813 36.4735 157.708 36.5388C157.603 36.5986 157.55 36.6993 157.55 36.8408C157.55 36.9714 157.581 37.1293 157.643 37.3143C157.754 37.6789 157.903 38.0871 158.089 38.5388C158.12 38.6204 158.157 38.7184 158.2 38.8327C158.244 38.9415 158.293 39.0694 158.349 39.2163C158.386 39.3306 158.433 39.4558 158.488 39.5918C158.544 39.7279 158.584 39.8259 158.609 39.8857C158.733 40.1796 158.826 40.4136 158.888 40.5878H158.906C159.03 40.2177 159.157 39.8585 159.287 39.5102C159.51 38.8789 159.755 38.2122 160.021 37.5102C160.3 36.7755 160.467 36.3184 160.523 36.1388H160.82Z" fill="white"/>
<path d="M170.558 40.6449C170.626 40.7918 170.685 40.9524 170.734 41.1265C170.784 41.2952 170.806 41.434 170.8 41.5429L171.431 41.5102V41.8694H169.304V41.6C169.669 41.5946 169.852 41.4639 169.852 41.2082C169.852 41.1048 169.821 40.9769 169.759 40.8245L169.434 40.0571L167.018 40.1061C166.926 40.3293 166.817 40.6204 166.693 40.9796C166.631 41.1592 166.554 41.3469 166.461 41.5429L167.186 41.5102V41.8694H165.448V41.6C165.603 41.6 165.727 41.5701 165.82 41.5102C165.913 41.4449 165.987 41.3633 166.043 41.2653C166.105 41.1619 166.176 41.0095 166.257 40.8082L166.35 40.5796L168.263 36H168.486L170.558 40.6449ZM168.208 37.1918L167.817 38.1143L167.316 39.3551L167.158 39.7551H169.304L168.644 38.1959L168.226 37.1918H168.208Z" fill="white"/>
<path d="M174.701 36.1469C175.574 36.1578 176.212 36.2884 176.615 36.5388C177.024 36.7837 177.228 37.1401 177.228 37.6082C177.234 37.9837 177.107 38.3211 176.847 38.6204C176.587 38.9197 176.135 39.1265 175.491 39.2408C175.596 39.3116 175.692 39.3959 175.779 39.4939C175.866 39.5918 175.983 39.7442 176.132 39.951L176.764 40.8245C176.9 41.015 177.011 41.1619 177.098 41.2653C177.191 41.3633 177.299 41.4449 177.423 41.5102C177.553 41.5701 177.711 41.6 177.897 41.6V41.8694H176.726C176.559 41.7442 176.417 41.6163 176.299 41.4857C176.188 41.3497 176.054 41.1755 175.9 40.9633L175.277 40.0898L175.156 39.9184C175.057 39.7714 174.971 39.6517 174.896 39.5592C174.822 39.4667 174.741 39.385 174.655 39.3143C174.599 39.3197 174.512 39.3224 174.395 39.3224C174.227 39.3224 174.104 39.3197 174.023 39.3143V40.898C174.023 41.1864 174.014 41.4014 173.995 41.5429L174.664 41.5102V41.8694H172.574V41.6C172.79 41.5946 172.945 41.551 173.038 41.4694C173.131 41.3878 173.184 41.2925 173.196 41.1837C173.209 41.0694 173.215 40.8735 173.215 40.5959V37.0694C173.215 36.8408 173.224 36.6449 173.243 36.4816L172.574 36.5143V36.1551C173.218 36.1442 173.704 36.1388 174.032 36.1388C174.33 36.1388 174.553 36.1415 174.701 36.1469ZM174.664 36.4571C174.447 36.4571 174.292 36.4952 174.2 36.5714C174.107 36.6476 174.054 36.7401 174.042 36.849C174.029 36.9578 174.023 37.151 174.023 37.4286V38.9959C174.209 39.0068 174.345 39.0122 174.432 39.0122C175.695 39.0122 176.327 38.5741 176.327 37.698C176.327 37.2844 176.191 36.9741 175.918 36.7673C175.646 36.5605 175.228 36.4571 174.664 36.4571Z" fill="white"/>
<path d="M183.666 37.5837H183.359C183.359 37.1374 183.247 36.8327 183.025 36.6694C182.808 36.5061 182.501 36.4299 182.105 36.4408L181.306 36.4571C181.083 36.4626 180.922 36.5007 180.823 36.5714C180.724 36.6367 180.662 36.732 180.637 36.8571C180.612 36.9769 180.6 37.1673 180.6 37.4286V38.7347L182.346 38.7429L182.281 38.0408H182.69V39.7551H182.383C182.383 39.5537 182.356 39.4014 182.3 39.298C182.244 39.1891 182.157 39.1184 182.04 39.0857C181.928 39.0476 181.77 39.0286 181.566 39.0286L181.278 39.0367L180.6 39.0612V40.9306C180.6 41.2136 180.59 41.4259 180.572 41.5673L182.346 41.5429C182.78 41.5374 183.111 41.4422 183.34 41.2571C183.57 41.0667 183.684 40.7401 183.684 40.2776H184L183.944 41.8694H179.151V41.6C179.367 41.5946 179.522 41.551 179.615 41.4694C179.708 41.3878 179.761 41.2925 179.773 41.1837C179.785 41.0694 179.792 40.8735 179.792 40.5959V37.0694C179.792 36.8408 179.801 36.6449 179.819 36.4816L179.151 36.5143V36.1551H183.619L183.666 37.5837Z" fill="white"/>
<path opacity="0.95" d="M42.6518 19.6061C42.3643 18.0728 41.6477 16.6962 40.9941 15.2937C40.5448 14.3263 39.7002 13.5089 39.7766 12.3195C38.8432 10.9264 37.7645 9.63723 36.5587 8.4738C36.3891 8.31934 35.9747 8.11753 36.4644 7.82553C36.5363 7.78268 36.4992 7.71278 36.4464 7.6519C35.8848 6.8875 35.3345 6.08477 34.5427 5.51879C33.9192 5.00689 33.2585 4.54259 32.5659 4.12979C28.9034 2.06095 24.9678 0.0236761 20.6606 0C15.831 0.0360779 11.0105 1.31459 7.26925 4.50974C-4.11163 14.0738 -0.89268 30.7801 8.42834 40.6226C8.65297 40.8368 8.8776 41.2314 9.15389 41.3092C10.2153 41.608 10.6825 42.8594 11.6653 43.2146C13.2781 43.8223 14.4731 45.2733 16.2039 45.625C17.135 45.8415 18.0009 46.244 18.9264 46.4492C20.4303 46.9002 23.1079 48.3658 24.614 47.9149C25.3508 47.4278 26.0101 48.1167 26.9008 47.8799C22.3823 46.9723 18.1009 45.0185 14.5911 41.9417C13.2285 40.7921 11.9845 39.5079 10.8779 38.1084C10.5174 37.7702 10.7465 37.2651 10.7151 36.8344C10.7285 36.1794 10.9251 34.0778 11.9786 34.8828C13.4679 36.2098 15.0223 37.5391 17.0227 37.9844C18.2817 38.4433 19.5902 36.8434 18.7074 35.7183C18.625 35.5893 18.5568 35.4517 18.5041 35.3079C18.1357 34.6201 19.0533 34.9291 19.2712 34.4815C19.762 33.7013 20.4112 34.61 21.0537 34.566C21.4041 34.5469 21.5299 34.4014 21.3232 34.0767C20.3921 32.4194 18.9197 31.1578 18.0593 29.4599C14.9347 23.1462 11.5979 13.554 17.29 7.77817C24.3872 1.95723 34.6516 6.53799 38.9668 13.6228C40.3325 15.4752 41.5702 17.411 42.0678 19.6895C42.2037 20.2623 42.1655 20.9297 43 21.0706C42.9674 20.5734 42.745 20.101 42.6518 19.6061ZM9.95582 4.91787C9.80869 6.66652 10.6657 5.06331 11.8742 5.42183C11.3058 5.9382 10.6072 6.17947 9.93448 6.46809C9.28193 6.49628 9.6054 5.28767 9.95582 4.91787ZM5.11617 9.41295C5.65528 8.88757 5.59014 9.78952 5.37899 10.0826C4.99375 10.4682 4.41083 10.5043 4.13341 11.1345C3.84027 10.2563 4.76462 10.0387 5.11617 9.41295ZM7.75332 21.8903C7.68369 22.4732 7.60956 23.2297 6.93455 23.4529C6.62119 23.3729 6.22135 22.6107 6.57402 22.4236C6.811 22.3322 7.71177 21.3367 7.75332 21.8903ZM16.1949 35.6867C16.4195 35.8705 17.0609 35.8998 16.9811 36.2628C16.9216 36.353 16.8272 36.2955 16.7565 36.2628C16.36 36.0757 12.0864 34.1207 13.0692 33.7419C14.0609 34.4646 15.083 35.1444 16.1949 35.6867ZM6.29997 17.7605C6.58862 17.8011 6.36287 18.0559 6.3449 18.2115C6.32356 18.3986 6.03154 18.6264 6.25055 18.7357C6.46957 18.8451 6.5729 18.5102 6.71329 18.349C6.87952 18.1596 6.83908 17.6725 7.31305 17.9082C7.60844 17.2317 7.72862 16.4899 8.12733 15.8585C8.26548 15.6037 8.89557 14.5924 8.90118 15.4211C8.81807 16.951 8.95285 18.6218 7.87238 19.8677C7.29638 20.4861 6.82482 21.1948 6.4763 21.9658C6.42801 22.0695 6.38084 22.2037 6.23707 22.1992C5.84172 22.0357 5.90013 21.2747 5.63057 20.9297C4.93085 19.6489 4.32884 18.2103 4.7197 16.7402C4.96567 16.0705 4.57369 16.0637 4.7197 15.6195C4.9623 15.217 4.64669 14.9971 4.35131 15.3636C3.98067 15.6702 4.01436 15.1381 4.21877 14.9487C4.32098 14.7784 4.43105 14.6104 4.53662 14.4447L4.46362 14.3861C4.41982 14.4199 4.37377 14.4515 4.33109 14.4864C4.23225 14.5541 4.14352 14.7277 4.01436 14.6104C3.82343 14.2609 4.39623 13.9092 4.5355 13.6014C4.40634 13.4785 4.3558 13.5754 4.29515 13.6183C4.18283 13.6972 4.10197 13.943 3.93911 13.8111C3.64147 13.3184 4.46362 12.952 4.59952 12.4672C4.33221 12.386 4.30301 12.6058 4.20193 12.7096C4.05479 12.9418 3.78861 12.7716 3.86498 12.5281C3.90092 12.2225 4.8848 11.5213 5.16896 11.6115C5.76647 11.6622 5.35877 13.324 6.054 12.6994C6.58188 11.749 6.57739 10.0522 8.07567 10.1976C7.81397 10.6948 7.43098 11.0128 7.08056 11.413C6.94466 11.5697 6.57177 11.7896 7.14233 11.8967C7.41863 11.9474 7.24566 12.1222 7.17153 12.2349C7.05922 12.5574 5.87879 13.6499 6.55156 13.7367C6.73351 13.7908 6.64815 13.9035 6.57963 13.9948C6.43699 14.2305 6.24269 14.3658 6.13936 14.7401C6.73014 14.4706 7.2816 14.4323 7.83644 14.0456C7.84205 14.6443 5.29026 17.8326 6.29997 17.7616V17.7605ZM19.789 5.68114C19.2454 6.11106 18.5717 6.34141 17.8796 6.33393C17.6707 6.26854 17.2675 6.48388 17.199 6.20089C17.1698 5.90212 17.81 5.75668 18.038 5.55938C18.2537 5.39252 20.4135 5.08022 19.789 5.68114Z" fill="white"/>
</svg>
