<svg width="22" height="22" viewBox="0 0 22 22" fill="none" xmlns="http://www.w3.org/2000/svg">
<path d="M20.5883 5.50001C19.8825 5.82084 19.1216 6.03167 18.3333 6.13251C19.14 5.64667 19.7633 4.87667 20.0566 3.95084C19.2958 4.40917 18.4525 4.73001 17.5633 4.91334C16.8391 4.12501 15.8216 3.66667 14.6666 3.66667C12.5125 3.66667 10.7525 5.42667 10.7525 7.59917C10.7525 7.91084 10.7891 8.21334 10.8533 8.49751C7.58996 8.33251 4.68412 6.765 2.74995 4.39084C2.41079 4.96834 2.21829 5.64667 2.21829 6.36167C2.21829 7.7275 2.90579 8.9375 3.96912 9.625C3.31829 9.625 2.71329 9.44167 2.18162 9.16667V9.19417C2.18162 11.1008 3.53829 12.6958 5.33495 13.0533C4.75812 13.2112 4.15254 13.2332 3.56579 13.1175C3.81476 13.8989 4.30236 14.5827 4.96005 15.0727C5.61774 15.5627 6.41245 15.8342 7.23245 15.8492C5.84245 16.9496 4.11945 17.5444 2.34662 17.5358C2.03495 17.5358 1.72329 17.5175 1.41162 17.4808C3.15329 18.5992 5.22495 19.25 7.44329 19.25C14.6666 19.25 18.6358 13.255 18.6358 8.0575C18.6358 7.88334 18.6358 7.71834 18.6266 7.54417C19.3966 6.99417 20.0566 6.2975 20.5883 5.50001Z" fill="#101010"/>
</svg>
