<svg width="110" height="110" viewBox="0 0 110 110" fill="none" xmlns="http://www.w3.org/2000/svg">
<path d="M30.25 34.375H24.75V75.625H30.25" stroke="white" stroke-width="2" stroke-linecap="square"/>
<path d="M79.75 34.375H85.25V75.625H79.75" stroke="white" stroke-width="2" stroke-linecap="square"/>
<path fill-rule="evenodd" clip-rule="evenodd" d="M41.25 26.125H68.75C68.75 26.125 72.875 26.125 72.875 30.25C72.875 34.041 73.1569 76.0852 72.875 79.75C72.5931 83.4148 68.75 83.875 68.75 83.875H41.25C41.25 83.875 37.125 83.7936 37.125 79.75C37.125 75.7064 37.0363 34.3641 37.125 30.25C37.0363 26.125 41.25 26.125 41.25 26.125Z" stroke="white" stroke-width="2" stroke-linecap="square"/>
<path d="M56.375 77H53.625V79.75H56.375V77Z" fill="white"/>
<path d="M67.375 31.625H42.625V72.875H67.375V31.625Z" stroke="#353641" stroke-width="2" stroke-linecap="square"/>
<path d="M48.125 57.75H55" stroke="#353641" stroke-width="2" stroke-linecap="square"/>
<path d="M48.125 63.25H55" stroke="#353641" stroke-width="2" stroke-linecap="square"/>
<path d="M61.3643 43.3812L50.8753 37.1741C50.6843 37.0601 50.4676 37 50.2471 37C50.0265 37 49.8099 37.0601 49.6189 37.1741C49.4298 37.2863 49.2729 37.4483 49.1642 37.6437C49.0554 37.8391 48.9988 38.0608 49 38.2862V50.7133C48.9988 50.9388 49.0554 51.1605 49.1642 51.3559C49.2729 51.5512 49.4298 51.7133 49.6189 51.8254C49.8107 51.9402 50.0286 52.0004 50.2502 52C50.4699 52.0002 50.6856 51.94 50.8753 51.8254L61.3643 45.6183C61.557 45.5074 61.7176 45.3452 61.8293 45.1485C61.9411 44.9519 62 44.7279 62 44.4998C62 44.2716 61.9411 44.0477 61.8293 43.851C61.7176 43.6544 61.557 43.4922 61.3643 43.3812ZM50.5002 49.362V39.6376L55.2009 44.4998L50.5002 49.362ZM56.2636 45.5989L57.0324 46.3942L53.4257 48.5279L56.2636 45.5989ZM53.4257 40.4716L57.0324 42.6053L56.2636 43.4006L53.4257 40.4716ZM58.3826 45.5925L57.32 44.4998L58.3826 43.4071L60.2329 44.4998L58.3826 45.5925Z" fill="#F7931E"/>
</svg>
