<svg width="110" height="110" viewBox="0 0 110 110" fill="none" xmlns="http://www.w3.org/2000/svg">
<path d="M51.8889 48.1111L52.7491 46.5633M53.838 44.6018L55.7778 41.1111M51.1111 46.5556H55M57.2556 46.5556H58.8889M58.1111 48.1111L56.1589 44.5971M55.0023 42.515L54.2246 41.1111M48 45C48 45.9193 48.1811 46.8295 48.5328 47.6788C48.8846 48.5281 49.4002 49.2997 50.0503 49.9497C50.7003 50.5998 51.4719 51.1154 52.3212 51.4672C53.1705 51.8189 54.0807 52 55 52C55.9193 52 56.8295 51.8189 57.6788 51.4672C58.5281 51.1154 59.2997 50.5998 59.9497 49.9497C60.5998 49.2997 61.1154 48.5281 61.4672 47.6788C61.8189 46.8295 62 45.9193 62 45C62 44.0807 61.8189 43.1705 61.4672 42.3212C61.1154 41.4719 60.5998 40.7003 59.9497 40.0503C59.2997 39.4002 58.5281 38.8846 57.6788 38.5328C56.8295 38.1811 55.9193 38 55 38C54.0807 38 53.1705 38.1811 52.3212 38.5328C51.4719 38.8846 50.7003 39.4002 50.0503 40.0503C49.4002 40.7003 48.8846 41.4719 48.5328 42.3212C48.1811 43.1705 48 44.0807 48 45Z" stroke="#F7931E" stroke-width="1.6" stroke-linecap="round" stroke-linejoin="round"/>
<path d="M30.25 34.375H24.75V75.625H30.25" stroke="white" stroke-width="2" stroke-linecap="square"/>
<path d="M79.75 34.375H85.25V75.625H79.75" stroke="white" stroke-width="2" stroke-linecap="square"/>
<path fill-rule="evenodd" clip-rule="evenodd" d="M41.25 26.125H68.75C68.75 26.125 72.875 26.125 72.875 30.25C72.875 34.041 73.1569 76.0852 72.875 79.75C72.5931 83.4148 68.75 83.875 68.75 83.875H41.25C41.25 83.875 37.125 83.7936 37.125 79.75C37.125 75.7064 37.0363 34.3641 37.125 30.25C37.0363 26.125 41.25 26.125 41.25 26.125Z" stroke="white" stroke-width="2" stroke-linecap="square"/>
<path d="M56.375 77H53.625V79.75H56.375V77Z" fill="white"/>
<path d="M67.375 31.625H42.625V72.875H67.375V31.625Z" stroke="#353641" stroke-width="2" stroke-linecap="square"/>
<path d="M48.125 57.75H55" stroke="#353641" stroke-width="2" stroke-linecap="square"/>
<path d="M48.125 63.25H55" stroke="#353641" stroke-width="2" stroke-linecap="square"/>
</svg>
