<svg width="17" height="18" viewBox="0 0 17 18" fill="none" xmlns="http://www.w3.org/2000/svg">
<path d="M0 1.10461V16.8946C0.000107595 16.9288 0.0105 16.9623 0.029874 16.9908C0.049248 17.0193 0.0767412 17.0415 0.108906 17.0546C0.141071 17.0678 0.176476 17.0714 0.21068 17.0648C0.244885 17.0583 0.276368 17.042 0.30118 17.0179L8.66351 9L0.30118 0.981267C0.276368 0.957216 0.244885 0.940902 0.21068 0.934371C0.176476 0.92784 0.141071 0.931383 0.108906 0.944556C0.0767412 0.957729 0.049248 0.979946 0.029874 1.00842C0.0105 1.03689 0.000107595 1.07036 0 1.10461ZM12.1698 5.7054L1.68448 0.0258337L1.67794 0.0222177C1.49732 -0.0742096 1.32568 0.166055 1.47361 0.305875L9.69292 8.03291L12.1698 5.7054ZM1.47443 17.6941C1.32568 17.8339 1.49732 18.0742 1.67876 17.9778L1.6853 17.9742L12.1698 12.2946L9.69292 9.96628L1.47443 17.6941ZM16.4026 7.99555L13.4746 6.41012L10.7215 9L13.4746 11.5887L16.4026 10.0044C17.1991 9.57173 17.1991 8.42827 16.4026 7.99555Z" fill="white"/>
</svg>
