<svg width="127" height="100" viewBox="0 0 127 100" fill="none" xmlns="http://www.w3.org/2000/svg">
<path d="M72.2648 100V69.9301C72.2648 51.049 76.7962 35.6643 85.8592 23.7762C95.1606 11.655 108.874 3.7296 127 0V22.7273C118.891 24.5921 112.452 28.0886 107.682 33.2168C102.912 38.1119 99.8113 44.0559 98.3803 51.049H119.845V100H72.2648ZM0 100V69.9301C0 51.049 4.53145 35.6643 13.5944 23.7762C22.8958 11.655 36.4901 3.7296 54.3775 0V22.7273C46.2685 24.5921 39.8291 28.0886 35.0592 33.2168C30.2892 38.1119 27.1887 44.0559 25.7577 51.049H47.2225V100H0Z" fill="#F1F3FF"/>
</svg>
