<svg width="113" height="20" viewBox="0 0 113 20" fill="none" xmlns="http://www.w3.org/2000/svg">
<path d="M10.4323 0L13.6559 6.58254L20.8647 7.64458L15.6485 12.7655L16.8795 20L10.4323 16.5825L3.98515 20L5.21617 12.7655L0 7.64458L7.20874 6.58254L10.4323 0Z" fill="#F7931E"/>
<path d="M10.5 0L13.7445 6.58254L21 7.64458L15.75 12.7655L16.989 20L10.5 16.5825L4.011 20L5.25 12.7655L0 7.64458L7.2555 6.58254L10.5 0Z" fill="#F7931E"/>
<path d="M33.5 0L36.7445 6.58254L44 7.64458L38.75 12.7655L39.989 20L33.5 16.5825L27.011 20L28.25 12.7655L23 7.64458L30.2555 6.58254L33.5 0Z" fill="#F7931E"/>
<path d="M56.5 0L59.7445 6.58254L67 7.64458L61.75 12.7655L62.989 20L56.5 16.5825L50.011 20L51.25 12.7655L46 7.64458L53.2555 6.58254L56.5 0Z" fill="#F7931E"/>
<path d="M79.5 0L82.7445 6.58254L90 7.64458L84.75 12.7655L85.989 20L79.5 16.5825L73.011 20L74.25 12.7655L69 7.64458L76.2555 6.58254L79.5 0Z" fill="#F7931E"/>
<path d="M102.5 0L105.744 6.58254L113 7.64458L107.75 12.7655L108.989 20L102.5 16.5825L96.011 20L97.25 12.7655L92 7.64458L99.2555 6.58254L102.5 0Z" fill="#F7931E"/>
</svg>
