<svg width="16" height="13" viewBox="0 0 16 13" fill="none" xmlns="http://www.w3.org/2000/svg">
<path d="M15.845 1.5C15.2675 1.7625 14.645 1.935 14 2.0175C14.66 1.62 15.17 0.99 15.41 0.2325C14.7875 0.6075 14.0975 0.87 13.37 1.02C12.7775 0.375 11.945 0 11 0C9.23753 0 7.79753 1.44 7.79753 3.2175C7.79753 3.4725 7.82753 3.72 7.88003 3.9525C5.21003 3.8175 2.83253 2.535 1.25003 0.5925C0.972529 1.065 0.815029 1.62 0.815029 2.205C0.815029 3.3225 1.37753 4.3125 2.24753 4.875C1.71503 4.875 1.22003 4.725 0.785029 4.5V4.5225C0.785029 6.0825 1.89503 7.3875 3.36503 7.68C2.89307 7.80916 2.3976 7.82713 1.91753 7.7325C2.12123 8.37186 2.52018 8.9313 3.05829 9.3322C3.5964 9.73309 4.24661 9.95527 4.91753 9.9675C3.78025 10.8678 2.37053 11.3545 0.920029 11.3475C0.665029 11.3475 0.410029 11.3325 0.155029 11.3025C1.58003 12.2175 3.27503 12.75 5.09003 12.75C11 12.75 14.2475 7.845 14.2475 3.5925C14.2475 3.45 14.2475 3.315 14.24 3.1725C14.87 2.7225 15.41 2.1525 15.845 1.5Z" fill="#86848C"/>
</svg>
