<svg width="16" height="16" viewBox="0 0 16 16" fill="none" xmlns="http://www.w3.org/2000/svg">
<path d="M5.78 15.155C6.5 15.3725 7.2275 15.5 8 15.5C9.98912 15.5 11.8968 14.7098 13.3033 13.3033C14.7098 11.8968 15.5 9.98912 15.5 8C15.5 7.01509 15.306 6.03982 14.9291 5.12987C14.5522 4.21993 13.9997 3.39314 13.3033 2.6967C12.6069 2.00026 11.7801 1.44781 10.8701 1.0709C9.96018 0.693993 8.98491 0.5 8 0.5C7.01509 0.5 6.03982 0.693993 5.12987 1.0709C4.21993 1.44781 3.39314 2.00026 2.6967 2.6967C1.29018 4.10322 0.5 6.01088 0.5 8C0.5 11.1875 2.5025 13.925 5.33 15.005C5.2625 14.42 5.195 13.4525 5.33 12.785L6.1925 9.08C6.1925 9.08 5.975 8.645 5.975 7.955C5.975 6.92 6.62 6.1475 7.355 6.1475C8 6.1475 8.3 6.62 8.3 7.2275C8.3 7.8725 7.8725 8.795 7.655 9.68C7.5275 10.415 8.045 11.06 8.795 11.06C10.13 11.06 11.165 9.635 11.165 7.625C11.165 5.825 9.875 4.595 8.0225 4.595C5.9075 4.595 4.6625 6.17 4.6625 7.8275C4.6625 8.4725 4.8725 9.125 5.2175 9.5525C5.285 9.5975 5.285 9.6575 5.2625 9.77L5.045 10.5875C5.045 10.715 4.9625 10.76 4.835 10.67C3.875 10.25 3.32 8.885 3.32 7.7825C3.32 5.4125 5 3.26 8.24 3.26C10.82 3.26 12.83 5.1125 12.83 7.5725C12.83 10.1525 11.2325 12.2225 8.945 12.2225C8.2175 12.2225 7.505 11.8325 7.25 11.375L6.7475 13.1525C6.575 13.7975 6.1025 14.66 5.78 15.1775V15.155Z" fill="#86848C"/>
</svg>
