<svg width="18" height="11" viewBox="0 0 18 11" fill="none" xmlns="http://www.w3.org/2000/svg">
<path d="M5.58225 0.0124512C6.0615 0.0124512 6.50475 0.0499511 6.90975 0.160951C7.27726 0.228485 7.62806 0.367074 7.9425 0.568951C8.238 0.754201 8.45925 1.01445 8.60625 1.3482C8.754 1.68195 8.8275 2.0907 8.8275 2.53545C8.8275 3.0552 8.71725 3.49995 8.45925 3.8337C8.238 4.1682 7.869 4.46445 7.4265 4.6872C8.0535 4.8732 8.53275 5.20695 8.8275 5.6517C9.123 6.0972 9.3075 6.6537 9.3075 7.28445C9.3075 7.8042 9.1965 8.24895 9.012 8.6202C8.8275 8.99145 8.53275 9.3252 8.2005 9.54795C7.83959 9.78672 7.44063 9.96223 7.02075 10.067C6.57825 10.1787 6.13575 10.2529 5.69325 10.2529H0.75V0.0124512H5.58225ZM5.28675 4.16745C5.6925 4.16745 6.02475 4.05645 6.28275 3.8712C6.54075 3.68595 6.65175 3.35145 6.65175 2.94345C6.65175 2.7207 6.61425 2.49795 6.54075 2.3502C6.46725 2.2017 6.35625 2.08995 6.20925 1.97895C6.0615 1.9047 5.91375 1.83045 5.72925 1.7937C5.54475 1.7562 5.361 1.7562 5.139 1.7562H3V4.1682H5.2875L5.28675 4.16745ZM5.39775 8.54595C5.619 8.54595 5.84025 8.50845 6.02475 8.4717C6.21103 8.43628 6.38721 8.36022 6.54075 8.24895C6.69104 8.14038 6.81677 8.00136 6.90975 7.84095C6.98325 7.6557 7.0575 7.43295 7.0575 7.17345C7.0575 6.6537 6.90975 6.28245 6.615 6.02295C6.3195 5.8002 5.91375 5.6892 5.4345 5.6892H3V8.5467L5.39775 8.54595ZM12.5167 8.50845C12.8115 8.80545 13.254 8.95395 13.8442 8.95395C14.25 8.95395 14.619 8.84295 14.9137 8.6577C15.2093 8.43495 15.3937 8.2122 15.4672 7.98945H17.2747C16.9792 8.8797 16.5368 9.51045 15.9473 9.91845C15.3563 10.2897 14.6558 10.5125 13.8075 10.5125C13.2648 10.5141 12.7266 10.4133 12.2213 10.2155C11.7665 10.0449 11.361 9.76455 11.0407 9.39945C10.6982 9.05788 10.445 8.63726 10.3035 8.1747C10.119 7.69245 10.0448 7.17345 10.0448 6.57945C10.0448 6.02295 10.119 5.50395 10.3035 5.02095C10.4809 4.55602 10.7434 4.12821 11.0775 3.75945C11.4097 3.4257 11.8155 3.12945 12.258 2.94345C12.7505 2.7455 13.2767 2.64465 13.8075 2.64645C14.4345 2.64645 14.988 2.7582 15.4672 3.0177C15.9472 3.2772 16.3155 3.5742 16.611 4.0197C16.9124 4.4476 17.137 4.92473 17.2747 5.4297C17.3483 5.9487 17.385 6.46845 17.3483 7.0617H12C12 7.6557 12.2212 8.2122 12.5167 8.5092V8.50845ZM14.8403 4.61295C14.5823 4.35345 14.1765 4.20495 13.6965 4.20495C13.4151 4.20073 13.1367 4.26427 12.885 4.3902C12.6638 4.50195 12.5168 4.65045 12.369 4.79895C12.2332 4.94239 12.1434 5.12312 12.111 5.31795C12.0735 5.50395 12.0367 5.6517 12.0367 5.8002H15.3563C15.2828 5.2437 15.0983 4.8732 14.8403 4.61295ZM11.5942 0.717451H15.7252V1.71945H11.595V0.717451H11.5942Z" fill="#86848C"/>
</svg>
