<svg width="28" height="19" viewBox="0 0 28 19" fill="none" xmlns="http://www.w3.org/2000/svg">
<path d="M8.30375 0.6875C9.1025 0.6875 9.84125 0.75 10.5163 0.935C11.1288 1.04756 11.7134 1.27854 12.2375 1.615C12.73 1.92375 13.0988 2.3575 13.3438 2.91375C13.59 3.47 13.7125 4.15125 13.7125 4.8925C13.7125 5.75875 13.5288 6.5 13.0988 7.05625C12.73 7.61375 12.115 8.1075 11.3775 8.47875C12.4225 8.78875 13.2213 9.345 13.7125 10.0862C14.205 10.8287 14.5125 11.7562 14.5125 12.8075C14.5125 13.6737 14.3275 14.415 14.02 15.0337C13.7125 15.6525 13.2213 16.2087 12.6675 16.58C12.066 16.9779 11.401 17.2705 10.7013 17.445C9.96375 17.6312 9.22625 17.755 8.48875 17.755H0.25V0.6875H8.30375ZM7.81125 7.6125C8.4875 7.6125 9.04125 7.4275 9.47125 7.11875C9.90125 6.81 10.0863 6.2525 10.0863 5.5725C10.0863 5.20125 10.0237 4.83 9.90125 4.58375C9.77875 4.33625 9.59375 4.15 9.34875 3.965C9.1025 3.84125 8.85625 3.7175 8.54875 3.65625C8.24125 3.59375 7.935 3.59375 7.565 3.59375H4V7.61375H7.8125L7.81125 7.6125ZM7.99625 14.91C8.365 14.91 8.73375 14.8475 9.04125 14.7862C9.35172 14.7272 9.64535 14.6005 9.90125 14.415C10.1517 14.234 10.3613 14.0023 10.5163 13.735C10.6388 13.4262 10.7625 13.055 10.7625 12.6225C10.7625 11.7562 10.5162 11.1375 10.025 10.705C9.5325 10.3337 8.85625 10.1487 8.0575 10.1487H4V14.9112L7.99625 14.91ZM19.8612 14.8475C20.3525 15.3425 21.09 15.59 22.0737 15.59C22.75 15.59 23.365 15.405 23.8563 15.0962C24.3488 14.725 24.6562 14.3537 24.7787 13.9825H27.7913C27.2988 15.4662 26.5613 16.5175 25.5788 17.1975C24.5938 17.8162 23.4262 18.1875 22.0125 18.1875C21.108 18.1902 20.211 18.0223 19.3688 17.6925C18.6109 17.4082 17.935 16.941 17.4012 16.3325C16.8304 15.7632 16.4084 15.0622 16.1725 14.2912C15.865 13.4875 15.7412 12.6225 15.7412 11.6325C15.7412 10.705 15.865 9.84 16.1725 9.035C16.4681 8.26011 16.9056 7.5471 17.4625 6.9325C18.0163 6.37625 18.6925 5.8825 19.43 5.5725C20.2509 5.24258 21.1278 5.07449 22.0125 5.0775C23.0575 5.0775 23.98 5.26375 24.7787 5.69625C25.5787 6.12875 26.1925 6.62375 26.685 7.36625C27.1874 8.07941 27.5617 8.87463 27.7913 9.71625C27.9138 10.5812 27.975 11.4475 27.9138 12.4362H19C19 13.4262 19.3687 14.3537 19.8612 14.8487V14.8475ZM23.7338 8.355C23.3038 7.9225 22.6275 7.675 21.8275 7.675C21.3584 7.66797 20.8946 7.77386 20.475 7.98375C20.1063 8.17 19.8613 8.4175 19.615 8.665C19.3887 8.90407 19.239 9.20527 19.185 9.53C19.1225 9.84 19.0612 10.0862 19.0612 10.3337H24.5938C24.4713 9.40625 24.1638 8.78875 23.7338 8.355ZM18.3237 1.8625H25.2087V3.5325H18.325V1.8625H18.3237Z" fill="white"/>
</svg>
