<svg width="26" height="26" viewBox="0 0 26 26" fill="none" xmlns="http://www.w3.org/2000/svg">
<path d="M9.3 24.925C10.5 25.2875 11.7125 25.5 13 25.5C16.3152 25.5 19.4946 24.183 21.8388 21.8388C24.183 19.4946 25.5 16.3152 25.5 13C25.5 11.3585 25.1767 9.73303 24.5485 8.21646C23.9203 6.69989 22.9996 5.3219 21.8388 4.16116C20.6781 3.00043 19.3001 2.07969 17.7835 1.45151C16.267 0.823322 14.6415 0.5 13 0.5C11.3585 0.5 9.73303 0.823322 8.21646 1.45151C6.69989 2.07969 5.3219 3.00043 4.16116 4.16116C1.81696 6.50537 0.5 9.68479 0.5 13C0.5 18.3125 3.8375 22.875 8.55 24.675C8.4375 23.7 8.325 22.0875 8.55 20.975L9.9875 14.8C9.9875 14.8 9.625 14.075 9.625 12.925C9.625 11.2 10.7 9.9125 11.925 9.9125C13 9.9125 13.5 10.7 13.5 11.7125C13.5 12.7875 12.7875 14.325 12.425 15.8C12.2125 17.025 13.075 18.1 14.325 18.1C16.55 18.1 18.275 15.725 18.275 12.375C18.275 9.375 16.125 7.325 13.0375 7.325C9.5125 7.325 7.4375 9.95 7.4375 12.7125C7.4375 13.7875 7.7875 14.875 8.3625 15.5875C8.475 15.6625 8.475 15.7625 8.4375 15.95L8.075 17.3125C8.075 17.525 7.9375 17.6 7.725 17.45C6.125 16.75 5.2 14.475 5.2 12.6375C5.2 8.6875 8 5.1 13.4 5.1C17.7 5.1 21.05 8.1875 21.05 12.2875C21.05 16.5875 18.3875 20.0375 14.575 20.0375C13.3625 20.0375 12.175 19.3875 11.75 18.625L10.9125 21.5875C10.625 22.6625 9.8375 24.1 9.3 24.9625V24.925Z" fill="white"/>
</svg>
